{
	"patcher" : 	{
		"fileversion" : 1,
		"appversion" : 		{
			"major" : 8,
			"minor" : 1,
			"revision" : 1,
			"architecture" : "x64",
			"modernui" : 1
		}
,
		"classnamespace" : "box",
		"rect" : [ 34.0, 79.0, 844.0, 687.0 ],
		"bglocked" : 0,
		"openinpresentation" : 1,
		"default_fontsize" : 12.0,
		"default_fontface" : 0,
		"default_fontname" : "Arial",
		"gridonopen" : 1,
		"gridsize" : [ 15.0, 15.0 ],
		"gridsnaponopen" : 1,
		"objectsnaponopen" : 1,
		"statusbarvisible" : 2,
		"toolbarvisible" : 1,
		"lefttoolbarpinned" : 0,
		"toptoolbarpinned" : 0,
		"righttoolbarpinned" : 0,
		"bottomtoolbarpinned" : 0,
		"toolbars_unpinned_last_save" : 0,
		"tallnewobj" : 0,
		"boxanimatetime" : 200,
		"enablehscroll" : 1,
		"enablevscroll" : 1,
		"devicewidth" : 0.0,
		"description" : "",
		"digest" : "",
		"tags" : "",
		"style" : "",
		"subpatcher_template" : "",
		"boxes" : [ 			{
				"box" : 				{
					"id" : "obj-57",
					"maxclass" : "comment",
					"numinlets" : 1,
					"numoutlets" : 0,
					"patching_rect" : [ 3488.666678667068481, 319.0, 74.0, 40.0 ],
					"presentation" : 1,
					"presentation_rect" : [ 3488.666678999999931, 319.0, 74.0, 40.0 ],
					"style" : "Descriptive Text",
					"text" : "PARAM",
					"textcolor" : [ 0.105882352941176, 0.6, 0.545098039215686, 1.0 ]
				}

			}
, 			{
				"box" : 				{
					"id" : "obj-55",
					"maxclass" : "comment",
					"numinlets" : 1,
					"numoutlets" : 0,
					"patching_rect" : [ 3488.666678667068481, 514.00000536441803, 74.0, 40.0 ],
					"presentation" : 1,
					"presentation_rect" : [ 3488.666678999999931, 514.000004999999987, 74.0, 40.0 ],
					"style" : "Descriptive Text",
					"text" : "PARAM",
					"textcolor" : [ 0.105882352941176, 0.6, 0.545098039215686, 1.0 ]
				}

			}
, 			{
				"box" : 				{
					"id" : "obj-54",
					"maxclass" : "comment",
					"numinlets" : 1,
					"numoutlets" : 0,
					"patching_rect" : [ 3284.333339691162109, 600.333333015441895, 74.0, 40.0 ],
					"presentation" : 1,
					"presentation_rect" : [ 3284.333340000000135, 600.333333000000039, 74.0, 40.0 ],
					"style" : "Descriptive Text",
					"text" : "PARAM",
					"textcolor" : [ 0.105882352941176, 0.6, 0.545098039215686, 1.0 ]
				}

			}
, 			{
				"box" : 				{
					"id" : "obj-51",
					"maxclass" : "comment",
					"numinlets" : 1,
					"numoutlets" : 0,
					"patching_rect" : [ 3056.0, 600.333333015441895, 74.0, 40.0 ],
					"presentation" : 1,
					"presentation_rect" : [ 3056.0, 600.333333000000039, 74.0, 40.0 ],
					"style" : "Descriptive Text",
					"text" : "PARAM"
				}

			}
, 			{
				"box" : 				{
					"id" : "obj-48",
					"maxclass" : "comment",
					"numinlets" : 1,
					"numoutlets" : 0,
					"patching_rect" : [ 2848.0, 514.00000536441803, 74.0, 40.0 ],
					"presentation" : 1,
					"presentation_rect" : [ 2848.0, 514.000004999999987, 74.0, 40.0 ],
					"style" : "Descriptive Text",
					"text" : "PARAM"
				}

			}
, 			{
				"box" : 				{
					"id" : "obj-47",
					"maxclass" : "comment",
					"numinlets" : 1,
					"numoutlets" : 0,
					"patching_rect" : [ 2848.0, 319.0, 74.0, 40.0 ],
					"presentation" : 1,
					"presentation_rect" : [ 2848.0, 319.0, 74.0, 40.0 ],
					"style" : "Descriptive Text",
					"text" : "PARAM"
				}

			}
, 			{
				"box" : 				{
					"id" : "obj-46",
					"maxclass" : "comment",
					"numinlets" : 1,
					"numoutlets" : 0,
					"patching_rect" : [ 3074.5, 405.333327651023865, 37.0, 40.0 ],
					"presentation" : 1,
					"presentation_rect" : [ 3074.5, 405.333327999999995, 37.0, 40.0 ],
					"style" : "Descriptive Text",
					"text" : "TID"
				}

			}
, 			{
				"box" : 				{
					"id" : "obj-45",
					"maxclass" : "comment",
					"numinlets" : 1,
					"numoutlets" : 0,
					"patching_rect" : [ 3270.333339691162109, 405.333327651023865, 102.0, 40.0 ],
					"presentation" : 1,
					"presentation_rect" : [ 3270.333340000000135, 405.333327999999995, 102.0, 40.0 ],
					"style" : "Descriptive Text",
					"text" : "FEEDBACK",
					"textcolor" : [ 0.105882352941176, 0.6, 0.545098039215686, 1.0 ]
				}

			}
, 			{
				"box" : 				{
					"bgcolor" : [ 0.105882352941176, 0.6, 0.545098039215686, 1.0 ],
					"degrees" : 360,
					"id" : "obj-42",
					"maxclass" : "dial",
					"mode" : 2,
					"needlecolor" : [ 1.0, 0.607843137254902, 0.443137254901961, 1.0 ],
					"numinlets" : 1,
					"numoutlets" : 1,
					"outlettype" : [ "float" ],
					"outlinecolor" : [ 0.176470588235294, 0.188235294117647, 0.27843137254902, 1.0 ],
					"parameter_enable" : 0,
					"patching_rect" : [ 3436.666678667068481, 444.999996662139893, 178.0, 178.0 ],
					"presentation" : 1,
					"presentation_rect" : [ 3436.666678667068481, 444.999996662139893, 178.0, 178.0 ]
				}

			}
, 			{
				"box" : 				{
					"bgcolor" : [ 0.105882352941176, 0.6, 0.545098039215686, 1.0 ],
					"degrees" : 360,
					"id" : "obj-44",
					"maxclass" : "dial",
					"mode" : 2,
					"needlecolor" : [ 1.0, 0.607843137254902, 0.443137254901961, 1.0 ],
					"numinlets" : 1,
					"numoutlets" : 1,
					"outlettype" : [ "float" ],
					"outlinecolor" : [ 0.176470588235294, 0.188235294117647, 0.27843137254902, 1.0 ],
					"parameter_enable" : 0,
					"patching_rect" : [ 3436.666678667068481, 249.999991297721863, 178.0, 178.0 ],
					"presentation" : 1,
					"presentation_rect" : [ 3436.666678667068481, 249.999991297721863, 178.0, 178.0 ]
				}

			}
, 			{
				"box" : 				{
					"bgcolor" : [ 0.105882352941176, 0.6, 0.545098039215686, 1.0 ],
					"degrees" : 360,
					"id" : "obj-38",
					"maxclass" : "dial",
					"mode" : 2,
					"needlecolor" : [ 1.0, 0.607843137254902, 0.443137254901961, 1.0 ],
					"numinlets" : 1,
					"numoutlets" : 1,
					"outlettype" : [ "float" ],
					"outlinecolor" : [ 0.176470588235294, 0.188235294117647, 0.27843137254902, 1.0 ],
					"parameter_enable" : 0,
					"patching_rect" : [ 3232.333339691162109, 531.333333015441895, 178.0, 178.0 ],
					"presentation" : 1,
					"presentation_rect" : [ 3232.333339691162109, 531.333333015441895, 178.0, 178.0 ]
				}

			}
, 			{
				"box" : 				{
					"bgcolor" : [ 0.105882352941176, 0.6, 0.545098039215686, 1.0 ],
					"degrees" : 360,
					"id" : "obj-40",
					"maxclass" : "dial",
					"mode" : 2,
					"needlecolor" : [ 1.0, 0.607843137254902, 0.443137254901961, 1.0 ],
					"numinlets" : 1,
					"numoutlets" : 1,
					"outlettype" : [ "float" ],
					"outlinecolor" : [ 0.176470588235294, 0.188235294117647, 0.27843137254902, 1.0 ],
					"parameter_enable" : 0,
					"patching_rect" : [ 3232.333339691162109, 336.333327651023865, 178.0, 178.0 ],
					"presentation" : 1,
					"presentation_rect" : [ 3232.333339691162109, 336.333327651023865, 178.0, 178.0 ]
				}

			}
, 			{
				"box" : 				{
					"bgcolor" : [ 1.0, 0.607843137254902, 0.443137254901961, 1.0 ],
					"degrees" : 360,
					"id" : "obj-32",
					"maxclass" : "dial",
					"mode" : 2,
					"needlecolor" : [ 0.105882352941176, 0.6, 0.545098039215686, 1.0 ],
					"numinlets" : 1,
					"numoutlets" : 1,
					"outlettype" : [ "float" ],
					"outlinecolor" : [ 0.176470588235294, 0.188235294117647, 0.27843137254902, 1.0 ],
					"parameter_enable" : 0,
					"patching_rect" : [ 2796.0, 445.00000536441803, 178.0, 178.0 ],
					"presentation" : 1,
					"presentation_rect" : [ 2796.0, 445.00000536441803, 178.0, 178.0 ]
				}

			}
, 			{
				"box" : 				{
					"bgcolor" : [ 1.0, 0.607843137254902, 0.443137254901961, 1.0 ],
					"degrees" : 360,
					"id" : "obj-33",
					"maxclass" : "dial",
					"mode" : 2,
					"needlecolor" : [ 0.105882352941176, 0.6, 0.545098039215686, 1.0 ],
					"numinlets" : 1,
					"numoutlets" : 1,
					"outlettype" : [ "float" ],
					"outlinecolor" : [ 0.176470588235294, 0.188235294117647, 0.27843137254902, 1.0 ],
					"parameter_enable" : 0,
					"patching_rect" : [ 2796.0, 250.0, 178.0, 178.0 ],
					"presentation" : 1,
					"presentation_rect" : [ 2796.0, 250.0, 178.0, 178.0 ]
				}

			}
, 			{
				"box" : 				{
					"bgcolor" : [ 1.0, 0.607843137254902, 0.443137254901961, 1.0 ],
					"degrees" : 360,
					"id" : "obj-31",
					"maxclass" : "dial",
					"mode" : 2,
					"needlecolor" : [ 0.105882352941176, 0.6, 0.545098039215686, 1.0 ],
					"numinlets" : 1,
					"numoutlets" : 1,
					"outlettype" : [ "float" ],
					"outlinecolor" : [ 0.176470588235294, 0.188235294117647, 0.27843137254902, 1.0 ],
					"parameter_enable" : 0,
					"patching_rect" : [ 3004.0, 531.333333015441895, 178.0, 178.0 ],
					"presentation" : 1,
					"presentation_rect" : [ 3004.0, 531.333333015441895, 178.0, 178.0 ]
				}

			}
, 			{
				"box" : 				{
					"bgcolor" : [ 1.0, 0.607843137254902, 0.443137254901961, 1.0 ],
					"degrees" : 360,
					"id" : "obj-30",
					"maxclass" : "dial",
					"mode" : 2,
					"needlecolor" : [ 0.105882352941176, 0.6, 0.545098039215686, 1.0 ],
					"numinlets" : 1,
					"numoutlets" : 1,
					"outlettype" : [ "float" ],
					"outlinecolor" : [ 0.176470588235294, 0.188235294117647, 0.27843137254902, 1.0 ],
					"parameter_enable" : 0,
					"patching_rect" : [ 3004.0, 336.333327651023865, 178.0, 178.0 ],
					"presentation" : 1,
					"presentation_rect" : [ 3004.0, 336.333327651023865, 178.0, 178.0 ]
				}

			}
, 			{
				"box" : 				{
					"id" : "obj-21",
					"maxclass" : "comment",
					"numinlets" : 1,
					"numoutlets" : 0,
					"patching_rect" : [ 3090.0, 274.000000999999997, 70.0, 40.0 ],
					"presentation" : 1,
					"presentation_rect" : [ 3090.0, 274.000000999999997, 70.0, 40.0 ],
					"style" : "Descriptive Text",
					"text" : "KLANG",
					"textcolor" : [ 0.105882352941176, 0.6, 0.545098039215686, 1.0 ]
				}

			}
, 			{
				"box" : 				{
					"id" : "obj-20",
					"maxclass" : "comment",
					"numinlets" : 1,
					"numoutlets" : 0,
					"patching_rect" : [ 3249.0, 274.000000999999997, 57.0, 40.0 ],
					"presentation" : 1,
					"presentation_rect" : [ 3249.0, 274.000000999999997, 57.0, 40.0 ],
					"style" : "Descriptive Text",
					"text" : "EKKO"
				}

			}
, 			{
				"box" : 				{
					"angle" : 270.0,
					"bgcolor" : [ 1.0, 0.607843137254902, 0.443137254901961, 1.0 ],
					"bordercolor" : [ 0.807843137254902, 0.898039215686275, 0.909803921568627, 0.0 ],
					"id" : "obj-16",
					"maxclass" : "panel",
					"mode" : 0,
					"numinlets" : 1,
					"numoutlets" : 0,
					"patching_rect" : [ 2982.0, 250.0, 222.0, 496.0 ],
					"presentation" : 1,
					"presentation_rect" : [ 2982.0, 250.0, 222.0, 496.0 ],
					"proportion" : 0.5,
					"rounded" : 0
				}

			}
, 			{
				"box" : 				{
					"angle" : 270.0,
					"bgcolor" : [ 1.0, 0.607843137254902, 0.443137254901961, 1.0 ],
					"bordercolor" : [ 0.807843137254902, 0.898039215686275, 0.909803921568627, 0.0 ],
					"id" : "obj-17",
					"maxclass" : "panel",
					"mode" : 0,
					"numinlets" : 1,
					"numoutlets" : 0,
					"patching_rect" : [ 2774.0, 250.0, 222.0, 496.0 ],
					"presentation" : 1,
					"presentation_rect" : [ 2774.0, 250.0, 222.0, 496.0 ],
					"proportion" : 0.5,
					"rounded" : 30
				}

			}
, 			{
				"box" : 				{
					"angle" : 270.0,
					"bgcolor" : [ 0.105882352941176, 0.6, 0.545098039215686, 1.0 ],
					"bordercolor" : [ 0.807843137254902, 0.898039215686275, 0.909803921568627, 0.0 ],
					"id" : "obj-13",
					"maxclass" : "panel",
					"mode" : 0,
					"numinlets" : 1,
					"numoutlets" : 0,
					"patching_rect" : [ 3198.0, 250.0, 336.0, 496.0 ],
					"presentation" : 1,
					"presentation_rect" : [ 3198.0, 250.0, 336.0, 496.0 ],
					"proportion" : 0.5,
					"rounded" : 0
				}

			}
, 			{
				"box" : 				{
					"angle" : 270.0,
					"bgcolor" : [ 0.105882352941176, 0.6, 0.545098039215686, 1.0 ],
					"bordercolor" : [ 0.807843137254902, 0.898039215686275, 0.909803921568627, 0.0 ],
					"id" : "obj-10",
					"maxclass" : "panel",
					"mode" : 0,
					"numinlets" : 1,
					"numoutlets" : 0,
					"patching_rect" : [ 3456.0, 250.0, 178.0, 496.0 ],
					"presentation" : 1,
					"presentation_rect" : [ 3456.0, 250.0, 178.0, 496.0 ],
					"proportion" : 0.5,
					"rounded" : 30
				}

			}
, 			{
				"box" : 				{
					"id" : "obj-2",
					"maxclass" : "newobj",
					"numinlets" : 1,
					"numoutlets" : 1,
					"outlettype" : [ "bang" ],
					"patching_rect" : [ 1474.0, 782.333343625068665, 58.0, 22.0 ],
					"text" : "loadbang"
				}

			}
, 			{
				"box" : 				{
					"id" : "obj-8",
					"maxclass" : "comment",
					"numinlets" : 1,
					"numoutlets" : 0,
					"patching_rect" : [ 3662.0, 121.000000999999997, 54.0, 40.0 ],
					"presentation" : 1,
					"presentation_rect" : [ 3662.0, 121.000000999999997, 54.0, 40.0 ],
					"style" : "Descriptive Text",
					"text" : "HJEM"
				}

			}
, 			{
				"box" : 				{
					"id" : "obj-7",
					"maxclass" : "comment",
					"numinlets" : 1,
					"numoutlets" : 0,
					"patching_rect" : [ 2382.0, 121.000000999999997, 54.0, 40.0 ],
					"presentation" : 1,
					"presentation_rect" : [ 2382.0, 121.000000999999997, 54.0, 40.0 ],
					"style" : "Descriptive Text",
					"text" : "HJEM"
				}

			}
, 			{
				"box" : 				{
					"id" : "obj-3",
					"maxclass" : "comment",
					"numinlets" : 1,
					"numoutlets" : 0,
					"patching_rect" : [ 3020.0, 52.000000999999997, 380.0, 73.0 ],
					"presentation" : 1,
					"presentation_rect" : [ 3020.0, 52.000000999999997, 380.0, 73.0 ],
					"style" : "Title Text",
					"text" : "LEGG TIL EFFEKTER!",
					"textjustification" : 0
				}

			}
, 			{
				"box" : 				{
					"id" : "obj-1",
					"maxclass" : "comment",
					"numinlets" : 1,
					"numoutlets" : 0,
					"patching_rect" : [ 1740.0, 52.000000999999997, 359.0, 73.0 ],
					"presentation" : 1,
					"presentation_rect" : [ 1740.0, 52.000000999999997, 359.0, 73.0 ],
					"style" : "Title Text",
					"text" : "LAG EGEN MELODI!",
					"textjustification" : 0
				}

			}
, 			{
				"box" : 				{
					"id" : "obj-4",
					"maxclass" : "newobj",
					"numinlets" : 1,
					"numoutlets" : 1,
					"outlettype" : [ "bang" ],
					"patching_rect" : [ 155.0, 900.0, 58.0, 22.0 ],
					"text" : "loadbang"
				}

			}
, 			{
				"box" : 				{
					"id" : "obj-91",
					"maxclass" : "newobj",
					"numinlets" : 1,
					"numoutlets" : 2,
					"outlettype" : [ "bang", "bang" ],
					"patching_rect" : [ 881.333360999999968, -275.0, 49.0, 22.0 ],
					"text" : "t b b"
				}

			}
, 			{
				"box" : 				{
					"id" : "obj-90",
					"maxclass" : "newobj",
					"numinlets" : 1,
					"numoutlets" : 1,
					"outlettype" : [ "bang" ],
					"patching_rect" : [ 881.333360999999968, -302.0, 58.0, 22.0 ],
					"text" : "loadbang"
				}

			}
, 			{
				"box" : 				{
					"id" : "obj-88",
					"maxclass" : "newobj",
					"numinlets" : 1,
					"numoutlets" : 1,
					"outlettype" : [ "" ],
					"patching_rect" : [ 1262.333360999999968, -145.0, 57.0, 22.0 ],
					"text" : "tosymbol"
				}

			}
, 			{
				"box" : 				{
					"id" : "obj-89",
					"maxclass" : "newobj",
					"numinlets" : 1,
					"numoutlets" : 1,
					"outlettype" : [ "" ],
					"patching_rect" : [ 1262.333360999999968, -109.0, 93.0, 22.0 ],
					"text" : "prepend picture"
				}

			}
, 			{
				"box" : 				{
					"id" : "obj-86",
					"maxclass" : "newobj",
					"numinlets" : 1,
					"numoutlets" : 1,
					"outlettype" : [ "" ],
					"patching_rect" : [ 1076.333360999999968, -145.0, 57.0, 22.0 ],
					"text" : "tosymbol"
				}

			}
, 			{
				"box" : 				{
					"id" : "obj-87",
					"maxclass" : "newobj",
					"numinlets" : 1,
					"numoutlets" : 1,
					"outlettype" : [ "" ],
					"patching_rect" : [ 1076.333360999999968, -109.0, 93.0, 22.0 ],
					"text" : "prepend picture"
				}

			}
, 			{
				"box" : 				{
					"id" : "obj-84",
					"maxclass" : "message",
					"numinlets" : 2,
					"numoutlets" : 1,
					"outlettype" : [ "" ],
					"patching_rect" : [ 1321.333360999999968, -219.899998098611832, 168.0, 22.0 ],
					"style" : "none",
					"text" : "fuzz-ui-btn_menu_genres.png"
				}

			}
, 			{
				"box" : 				{
					"id" : "obj-85",
					"maxclass" : "newobj",
					"numinlets" : 2,
					"numoutlets" : 1,
					"outlettype" : [ "" ],
					"patching_rect" : [ 1262.333360999999968, -180.0, 176.0, 22.0 ],
					"text" : "sprintf %sresources/images/%s"
				}

			}
, 			{
				"box" : 				{
					"id" : "obj-82",
					"maxclass" : "message",
					"numinlets" : 2,
					"numoutlets" : 1,
					"outlettype" : [ "" ],
					"patching_rect" : [ 1135.333360999999968, -219.899998098611832, 169.0, 22.0 ],
					"text" : "fuzz-ui-btn_menu_melody.png"
				}

			}
, 			{
				"box" : 				{
					"id" : "obj-83",
					"maxclass" : "newobj",
					"numinlets" : 2,
					"numoutlets" : 1,
					"outlettype" : [ "" ],
					"patching_rect" : [ 1076.333360999999968, -180.0, 176.0, 22.0 ],
					"text" : "sprintf %sresources/images/%s"
				}

			}
, 			{
				"box" : 				{
					"id" : "obj-81",
					"maxclass" : "newobj",
					"numinlets" : 1,
					"numoutlets" : 1,
					"outlettype" : [ "" ],
					"patching_rect" : [ 929.333360999999968, -145.0, 57.0, 22.0 ],
					"text" : "tosymbol"
				}

			}
, 			{
				"box" : 				{
					"id" : "obj-77",
					"maxclass" : "newobj",
					"numinlets" : 1,
					"numoutlets" : 1,
					"outlettype" : [ "" ],
					"patching_rect" : [ 929.333360999999968, -109.0, 93.0, 22.0 ],
					"text" : "prepend picture"
				}

			}
, 			{
				"box" : 				{
					"id" : "obj-63",
					"maxclass" : "message",
					"numinlets" : 2,
					"numoutlets" : 1,
					"outlettype" : [ "" ],
					"patching_rect" : [ 988.333360999999968, -219.0, 141.0, 22.0 ],
					"text" : "fuzz-ui-btn_menu_fx.png"
				}

			}
, 			{
				"box" : 				{
					"id" : "obj-56",
					"maxclass" : "newobj",
					"numinlets" : 2,
					"numoutlets" : 1,
					"outlettype" : [ "" ],
					"patching_rect" : [ 929.333360999999968, -180.0, 176.0, 22.0 ],
					"text" : "sprintf %sresources/images/%s"
				}

			}
, 			{
				"box" : 				{
					"id" : "obj-12",
					"maxclass" : "message",
					"numinlets" : 2,
					"numoutlets" : 1,
					"outlettype" : [ "" ],
					"patching_rect" : [ 881.333360999999968, -246.0, 40.0, 22.0 ],
					"text" : "path"
				}

			}
, 			{
				"box" : 				{
					"id" : "obj-6",
					"maxclass" : "newobj",
					"numinlets" : 1,
					"numoutlets" : 2,
					"outlettype" : [ "", "" ],
					"patching_rect" : [ 881.333360999999968, -219.0, 67.0, 22.0 ],
					"save" : [ "#N", "thispatcher", ";", "#Q", "end", ";" ],
					"text" : "thispatcher"
				}

			}
, 			{
				"box" : 				{
					"id" : "obj-5",
					"linecount" : 3,
					"maxclass" : "comment",
					"numinlets" : 1,
					"numoutlets" : 0,
					"patching_rect" : [ 881.333360999999968, -361.666635274887085, 150.0, 47.0 ],
					"text" : "Buttons graphics are not remembered. Set them manually."
				}

			}
, 			{
				"box" : 				{
					"clickedimage" : 1,
					"id" : "obj-234",
					"maxclass" : "pictctrl",
					"name" : "fuzz-ui-btn_menu_fx.png",
					"numinlets" : 1,
					"numoutlets" : 1,
					"outlettype" : [ "int" ],
					"parameter_enable" : 0,
					"patching_rect" : [ 929.333360999999968, -18.999998999999999, 128.0, 128.0 ],
					"presentation" : 1,
					"presentation_rect" : [ 1065.0, -18.999998688697815, 128.0, 128.0 ]
				}

			}
, 			{
				"box" : 				{
					"id" : "obj-253",
					"maxclass" : "comment",
					"numinlets" : 1,
					"numoutlets" : 0,
					"patching_rect" : [ 2366.0, 752.333345025777817, 154.0, 34.0 ],
					"text" : "Switch to Genres View\n"
				}

			}
, 			{
				"box" : 				{
					"id" : "obj-249",
					"maxclass" : "button",
					"numinlets" : 1,
					"numoutlets" : 1,
					"outlettype" : [ "bang" ],
					"parameter_enable" : 0,
					"patching_rect" : [ 2327.333364963531494, 783.000034421682358, 24.0, 24.0 ]
				}

			}
, 			{
				"box" : 				{
					"id" : "obj-250",
					"maxclass" : "newobj",
					"numinlets" : 2,
					"numoutlets" : 2,
					"outlettype" : [ "bang", "" ],
					"patching_rect" : [ 2327.333364963531494, 752.333345025777817, 40.0, 22.0 ],
					"text" : "sel 0"
				}

			}
, 			{
				"box" : 				{
					"comment" : "Switch to Genres View",
					"id" : "obj-251",
					"index" : 0,
					"maxclass" : "outlet",
					"numinlets" : 1,
					"numoutlets" : 0,
					"patching_rect" : [ 2327.333364963531494, 815.333345025777817, 30.0, 30.0 ]
				}

			}
, 			{
				"box" : 				{
					"clickedimage" : 1,
					"id" : "obj-246",
					"maxclass" : "pictctrl",
					"name" : "fuzz-ui-btn_menu_genres.png",
					"numinlets" : 1,
					"numoutlets" : 1,
					"outlettype" : [ "int" ],
					"parameter_enable" : 0,
					"patching_rect" : [ 3625.0, -19.0, 128.0, 128.0 ],
					"presentation" : 1,
					"presentation_rect" : [ 3625.0, -19.0, 128.0, 128.0 ]
				}

			}
, 			{
				"box" : 				{
					"clickedimage" : 1,
					"id" : "obj-243",
					"maxclass" : "pictctrl",
					"name" : "fuzz-ui-btn_menu_genres.png",
					"numinlets" : 1,
					"numoutlets" : 1,
					"outlettype" : [ "int" ],
					"parameter_enable" : 0,
					"patching_rect" : [ 2345.0, -19.0, 128.0, 128.0 ],
					"presentation" : 1,
					"presentation_rect" : [ 2345.0, -19.0, 128.0, 128.0 ]
				}

			}
, 			{
				"box" : 				{
					"id" : "obj-240",
					"maxclass" : "button",
					"numinlets" : 1,
					"numoutlets" : 1,
					"outlettype" : [ "bang" ],
					"parameter_enable" : 0,
					"patching_rect" : [ 1076.333364963531494, 758.666689395904541, 24.0, 24.0 ]
				}

			}
, 			{
				"box" : 				{
					"id" : "obj-241",
					"maxclass" : "newobj",
					"numinlets" : 2,
					"numoutlets" : 2,
					"outlettype" : [ "bang", "" ],
					"patching_rect" : [ 1076.333364963531494, 728.0, 40.0, 22.0 ],
					"text" : "sel 0"
				}

			}
, 			{
				"box" : 				{
					"id" : "obj-239",
					"maxclass" : "button",
					"numinlets" : 1,
					"numoutlets" : 1,
					"outlettype" : [ "bang" ],
					"parameter_enable" : 0,
					"patching_rect" : [ 925.333360910415649, 758.666689395904541, 24.0, 24.0 ]
				}

			}
, 			{
				"box" : 				{
					"id" : "obj-237",
					"maxclass" : "newobj",
					"numinlets" : 2,
					"numoutlets" : 2,
					"outlettype" : [ "bang", "" ],
					"patching_rect" : [ 925.333360910415649, 728.0, 40.0, 22.0 ],
					"text" : "sel 0"
				}

			}
, 			{
				"box" : 				{
					"clickedimage" : 1,
					"id" : "obj-236",
					"maxclass" : "pictctrl",
					"name" : "fuzz-ui-btn_menu_melody.png",
					"numinlets" : 1,
					"numoutlets" : 1,
					"outlettype" : [ "int" ],
					"parameter_enable" : 0,
					"patching_rect" : [ 1065.0, -18.999998999999999, 132.0, 128.0 ],
					"presentation" : 1,
					"presentation_rect" : [ 929.333361029624939, -18.999998688697815, 128.0, 128.0 ]
				}

			}
, 			{
				"box" : 				{
					"fontname" : "AlternateGothic-NoOne",
					"fontsize" : 36.0,
					"id" : "obj-213",
					"maxclass" : "comment",
					"numinlets" : 1,
					"numoutlets" : 0,
					"patching_rect" : [ 955.333360999999968, 121.000000999999997, 76.0, 40.0 ],
					"presentation" : 1,
					"presentation_rect" : [ 955.333361029624939, 121.000001311302185, 76.0, 40.0 ],
					"style" : "Descriptive Text",
					"text" : "MELODI"
				}

			}
, 			{
				"box" : 				{
					"id" : "obj-220",
					"maxclass" : "message",
					"numinlets" : 2,
					"numoutlets" : 1,
					"outlettype" : [ "" ],
					"patching_rect" : [ 237.333340406417847, 965.333360314369202, 55.0, 22.0 ],
					"text" : "HIPHOP"
				}

			}
, 			{
				"box" : 				{
					"bgmode" : 0,
					"border" : 0,
					"clickthrough" : 0,
					"enablehscroll" : 0,
					"enablevscroll" : 0,
					"id" : "obj-219",
					"lockeddragscroll" : 0,
					"maxclass" : "bpatcher",
					"name" : "FUZZ_UI-Genre_Button.maxpat",
					"numinlets" : 3,
					"numoutlets" : 2,
					"offset" : [ 0.0, 0.0 ],
					"outlettype" : [ "", "" ],
					"patching_rect" : [ 580.333333790302277, 419.000003337860107, 119.333332419395447, 119.333332419395447 ],
					"presentation" : 1,
					"presentation_rect" : [ 613.0, 411.400001883506775, 121.333331823348999, 120.80116840238918 ],
					"viewvisibility" : 1
				}

			}
, 			{
				"box" : 				{
					"id" : "obj-218",
					"maxclass" : "comment",
					"numinlets" : 1,
					"numoutlets" : 0,
					"patching_rect" : [ 1041.333342432975769, 828.333334445953369, 158.0, 20.0 ],
					"text" : "Bang: Switch to FX view."
				}

			}
, 			{
				"box" : 				{
					"id" : "obj-215",
					"maxclass" : "comment",
					"numinlets" : 1,
					"numoutlets" : 0,
					"patching_rect" : [ 1081.0, 121.000000999999997, 96.0, 40.0 ],
					"presentation" : 1,
					"presentation_rect" : [ 1081.0, 121.000001311302185, 96.0, 40.0 ],
					"style" : "Descriptive Text",
					"text" : "EFFEKTER"
				}

			}
, 			{
				"box" : 				{
					"id" : "obj-207",
					"linecount" : 2,
					"maxclass" : "comment",
					"numinlets" : 1,
					"numoutlets" : 0,
					"patching_rect" : [ 861.333360910415649, 828.333334445953369, 158.0, 33.0 ],
					"text" : "Bang: Switch to melody view."
				}

			}
, 			{
				"box" : 				{
					"comment" : "Switch to FX View",
					"id" : "obj-205",
					"index" : 0,
					"maxclass" : "outlet",
					"numinlets" : 1,
					"numoutlets" : 0,
					"patching_rect" : [ 1076.333364963531494, 791.0, 30.0, 30.0 ]
				}

			}
, 			{
				"box" : 				{
					"comment" : "Switch to melody view",
					"id" : "obj-204",
					"index" : 0,
					"maxclass" : "outlet",
					"numinlets" : 1,
					"numoutlets" : 0,
					"patching_rect" : [ 925.333360910415649, 791.0, 30.0, 30.0 ]
				}

			}
, 			{
				"box" : 				{
					"id" : "obj-203",
					"maxclass" : "newobj",
					"numinlets" : 1,
					"numoutlets" : 1,
					"outlettype" : [ "bang" ],
					"patching_rect" : [ 237.333340406417847, 734.000000357627869, 58.0, 22.0 ],
					"text" : "loadbang"
				}

			}
, 			{
				"box" : 				{
					"id" : "obj-202",
					"maxclass" : "message",
					"numinlets" : 2,
					"numoutlets" : 1,
					"outlettype" : [ "" ],
					"patching_rect" : [ 237.333340406417847, 935.666693210601807, 59.0, 22.0 ],
					"text" : "MINIMAL"
				}

			}
, 			{
				"box" : 				{
					"id" : "obj-201",
					"maxclass" : "message",
					"numinlets" : 2,
					"numoutlets" : 1,
					"outlettype" : [ "" ],
					"patching_rect" : [ 237.333340406417847, 908.666692852973938, 40.0, 22.0 ],
					"text" : "808"
				}

			}
, 			{
				"box" : 				{
					"id" : "obj-196",
					"maxclass" : "message",
					"numinlets" : 2,
					"numoutlets" : 1,
					"outlettype" : [ "" ],
					"patching_rect" : [ 237.333340406417847, 881.666692495346069, 51.0, 22.0 ],
					"text" : "HOUSE"
				}

			}
, 			{
				"box" : 				{
					"id" : "obj-195",
					"maxclass" : "message",
					"numinlets" : 2,
					"numoutlets" : 1,
					"outlettype" : [ "" ],
					"patching_rect" : [ 237.333340406417847, 854.666692137718201, 40.0, 22.0 ],
					"text" : "POP"
				}

			}
, 			{
				"box" : 				{
					"bgmode" : 0,
					"border" : 0,
					"clickthrough" : 0,
					"enablehscroll" : 0,
					"enablevscroll" : 0,
					"id" : "obj-189",
					"lockeddragscroll" : 0,
					"maxclass" : "bpatcher",
					"name" : "FUZZ_UI-Genre_Button.maxpat",
					"numinlets" : 3,
					"numoutlets" : 2,
					"offset" : [ 0.0, 0.0 ],
					"outlettype" : [ "", "" ],
					"patching_rect" : [ 580.333333790302277, 297.666670918464661, 119.333332419395447, 119.333332419395447 ],
					"presentation" : 1,
					"presentation_rect" : [ 612.999999761581421, 256.932167688652441, 121.333331823348999, 120.80116840238918 ],
					"viewvisibility" : 1
				}

			}
, 			{
				"box" : 				{
					"bgmode" : 0,
					"border" : 0,
					"clickthrough" : 0,
					"enablehscroll" : 0,
					"enablevscroll" : 0,
					"id" : "obj-187",
					"lockeddragscroll" : 0,
					"maxclass" : "bpatcher",
					"name" : "FUZZ_UI-Genre_Button.maxpat",
					"numinlets" : 3,
					"numoutlets" : 2,
					"offset" : [ 0.0, 0.0 ],
					"outlettype" : [ "", "" ],
					"patching_rect" : [ 580.333333790302277, 558.666664958000183, 119.333332419395447, 119.333332419395447 ],
					"presentation" : 1,
					"presentation_rect" : [ 613.0, 555.065500358387339, 121.333331823348999, 120.80116840238918 ],
					"viewvisibility" : 1
				}

			}
, 			{
				"box" : 				{
					"bgmode" : 0,
					"border" : 0,
					"clickthrough" : 0,
					"embed" : 1,
					"enablehscroll" : 0,
					"enablevscroll" : 0,
					"id" : "obj-186",
					"lockeddragscroll" : 0,
					"maxclass" : "bpatcher",
					"name" : "FUZZ_UI-Genre_Button.maxpat",
					"numinlets" : 3,
					"numoutlets" : 2,
					"offset" : [ 0.0, 0.0 ],
					"outlettype" : [ "", "" ],
					"patcher" : 					{
						"fileversion" : 1,
						"appversion" : 						{
							"major" : 8,
							"minor" : 1,
							"revision" : 1,
							"architecture" : "x64",
							"modernui" : 1
						}
,
						"classnamespace" : "box",
						"rect" : [ 798.0, 93.0, 284.0, 687.0 ],
						"bglocked" : 0,
						"openinpresentation" : 1,
						"default_fontsize" : 12.0,
						"default_fontface" : 0,
						"default_fontname" : "Arial",
						"gridonopen" : 1,
						"gridsize" : [ 15.0, 15.0 ],
						"gridsnaponopen" : 1,
						"objectsnaponopen" : 1,
						"statusbarvisible" : 2,
						"toolbarvisible" : 1,
						"lefttoolbarpinned" : 0,
						"toptoolbarpinned" : 0,
						"righttoolbarpinned" : 0,
						"bottomtoolbarpinned" : 0,
						"toolbars_unpinned_last_save" : 0,
						"tallnewobj" : 0,
						"boxanimatetime" : 200,
						"enablehscroll" : 1,
						"enablevscroll" : 1,
						"devicewidth" : 0.0,
						"description" : "",
						"digest" : "",
						"tags" : "",
						"style" : "FUZZ Producer Station",
						"subpatcher_template" : "",
						"boxes" : [ 							{
								"box" : 								{
									"comment" : "Bang on mouse up.",
									"id" : "obj-7",
									"index" : 2,
									"maxclass" : "outlet",
									"numinlets" : 1,
									"numoutlets" : 0,
									"patching_rect" : [ 229.0, 489.0, 30.0, 30.0 ]
								}

							}
, 							{
								"box" : 								{
									"id" : "obj-6",
									"maxclass" : "newobj",
									"numinlets" : 1,
									"numoutlets" : 2,
									"outlettype" : [ "bang", "bang" ],
									"patching_rect" : [ 102.5, 489.0, 32.0, 22.0 ],
									"text" : "t b b"
								}

							}
, 							{
								"box" : 								{
									"id" : "obj-2",
									"maxclass" : "newobj",
									"numinlets" : 0,
									"numoutlets" : 1,
									"outlettype" : [ "" ],
									"patching_rect" : [ 64.0, 116.0, 96.0, 22.0 ],
									"text" : "r reset_genre_ui"
								}

							}
, 							{
								"box" : 								{
									"id" : "obj-1",
									"maxclass" : "newobj",
									"numinlets" : 1,
									"numoutlets" : 0,
									"patching_rect" : [ 115.5, 539.0, 98.0, 22.0 ],
									"text" : "s reset_genre_ui"
								}

							}
, 							{
								"box" : 								{
									"id" : "obj-41",
									"maxclass" : "message",
									"numinlets" : 2,
									"numoutlets" : 1,
									"outlettype" : [ "" ],
									"patching_rect" : [ -52.0, 264.0, 101.0, 22.0 ],
									"text" : "style \"Large Text\""
								}

							}
, 							{
								"box" : 								{
									"id" : "obj-40",
									"maxclass" : "message",
									"numinlets" : 2,
									"numoutlets" : 1,
									"outlettype" : [ "" ],
									"patching_rect" : [ -52.0, 228.0, 113.0, 22.0 ],
									"text" : "style \"Medium Text\""
								}

							}
, 							{
								"box" : 								{
									"id" : "obj-39",
									"maxclass" : "newobj",
									"numinlets" : 4,
									"numoutlets" : 4,
									"outlettype" : [ "bang", "bang", "bang", "" ],
									"patching_rect" : [ -50.0, 116.0, 54.0, 22.0 ],
									"text" : "sel 0 1 2"
								}

							}
, 							{
								"box" : 								{
									"id" : "obj-37",
									"maxclass" : "newobj",
									"numinlets" : 5,
									"numoutlets" : 4,
									"outlettype" : [ "int", "", "", "int" ],
									"patching_rect" : [ -50.0, 82.0, 61.0, 22.0 ],
									"text" : "counter 2"
								}

							}
, 							{
								"box" : 								{
									"id" : "obj-35",
									"linecount" : 3,
									"maxclass" : "comment",
									"numinlets" : 1,
									"numoutlets" : 0,
									"patching_rect" : [ -16.0, 25.5, 64.0, 47.0 ],
									"text" : "Text Style to control size."
								}

							}
, 							{
								"box" : 								{
									"comment" : "Bang to change text size.",
									"id" : "obj-30",
									"index" : 2,
									"maxclass" : "inlet",
									"numinlets" : 0,
									"numoutlets" : 1,
									"outlettype" : [ "" ],
									"patching_rect" : [ -50.0, 34.0, 30.0, 30.0 ]
								}

							}
, 							{
								"box" : 								{
									"id" : "obj-28",
									"maxclass" : "newobj",
									"numinlets" : 1,
									"numoutlets" : 1,
									"outlettype" : [ "bang" ],
									"patching_rect" : [ -52.0, 166.0, 58.0, 22.0 ],
									"text" : "loadbang"
								}

							}
, 							{
								"box" : 								{
									"id" : "obj-24",
									"maxclass" : "message",
									"numinlets" : 2,
									"numoutlets" : 1,
									"outlettype" : [ "" ],
									"patching_rect" : [ -52.0, 196.0, 100.0, 22.0 ],
									"text" : "style \"Small Text\""
								}

							}
, 							{
								"box" : 								{
									"id" : "obj-3",
									"maxclass" : "newobj",
									"numinlets" : 1,
									"numoutlets" : 1,
									"outlettype" : [ "" ],
									"patching_rect" : [ -139.0, 166.0, 75.0, 22.0 ],
									"text" : "prepend text"
								}

							}
, 							{
								"box" : 								{
									"comment" : "Bang on mouse up.",
									"id" : "obj-38",
									"index" : 1,
									"maxclass" : "outlet",
									"numinlets" : 1,
									"numoutlets" : 0,
									"patching_rect" : [ 64.0, 489.0, 30.0, 30.0 ]
								}

							}
, 							{
								"box" : 								{
									"comment" : "Button Name",
									"id" : "obj-32",
									"index" : 1,
									"maxclass" : "inlet",
									"numinlets" : 0,
									"numoutlets" : 1,
									"outlettype" : [ "" ],
									"patching_rect" : [ -139.0, 34.0, 30.0, 30.0 ]
								}

							}
, 							{
								"box" : 								{
									"id" : "obj-16",
									"linecount" : 3,
									"maxclass" : "comment",
									"numinlets" : 1,
									"numoutlets" : 0,
									"patching_rect" : [ 437.0, 34.0, 150.0, 47.0 ],
									"text" : "Send 1 to enable pulsing, 0 to disable. Off by default."
								}

							}
, 							{
								"box" : 								{
									"id" : "obj-14",
									"maxclass" : "toggle",
									"numinlets" : 1,
									"numoutlets" : 1,
									"outlettype" : [ "int" ],
									"parameter_enable" : 0,
									"patching_rect" : [ 403.0, 73.0, 24.0, 24.0 ]
								}

							}
, 							{
								"box" : 								{
									"id" : "obj-12",
									"maxclass" : "newobj",
									"numinlets" : 2,
									"numoutlets" : 1,
									"outlettype" : [ "" ],
									"patching_rect" : [ 403.0, 108.0, 32.0, 22.0 ],
									"text" : "gate"
								}

							}
, 							{
								"box" : 								{
									"id" : "obj-9",
									"maxclass" : "message",
									"numinlets" : 2,
									"numoutlets" : 1,
									"outlettype" : [ "" ],
									"patching_rect" : [ 403.0, 168.0, 29.5, 22.0 ],
									"text" : "1"
								}

							}
, 							{
								"box" : 								{
									"comment" : "Enable/disable pusling when active (0 or 1).",
									"id" : "obj-4",
									"index" : 3,
									"maxclass" : "inlet",
									"numinlets" : 0,
									"numoutlets" : 1,
									"outlettype" : [ "int" ],
									"patching_rect" : [ 403.0, 34.0, 30.0, 30.0 ]
								}

							}
, 							{
								"box" : 								{
									"id" : "obj-96",
									"maxclass" : "comment",
									"numinlets" : 1,
									"numoutlets" : 0,
									"patching_rect" : [ 590.0, 108.0, 67.0, 20.0 ],
									"text" : "Start Pulse"
								}

							}
, 							{
								"box" : 								{
									"id" : "obj-89",
									"maxclass" : "newobj",
									"numinlets" : 2,
									"numoutlets" : 1,
									"outlettype" : [ "float" ],
									"patching_rect" : [ 563.0, 226.0, 32.0, 22.0 ],
									"text" : "/ 10."
								}

							}
, 							{
								"box" : 								{
									"id" : "obj-88",
									"maxclass" : "newobj",
									"numinlets" : 2,
									"numoutlets" : 1,
									"outlettype" : [ "float" ],
									"patching_rect" : [ 563.0, 317.0, 29.5, 22.0 ],
									"text" : "/ 2."
								}

							}
, 							{
								"box" : 								{
									"id" : "obj-81",
									"maxclass" : "newobj",
									"numinlets" : 2,
									"numoutlets" : 1,
									"outlettype" : [ "float" ],
									"patching_rect" : [ 563.0, 288.0, 29.5, 22.0 ],
									"text" : "+ 1."
								}

							}
, 							{
								"box" : 								{
									"id" : "obj-78",
									"maxclass" : "toggle",
									"numinlets" : 1,
									"numoutlets" : 1,
									"outlettype" : [ "int" ],
									"parameter_enable" : 0,
									"patching_rect" : [ 563.0, 108.0, 24.0, 24.0 ]
								}

							}
, 							{
								"box" : 								{
									"id" : "obj-76",
									"maxclass" : "newobj",
									"numinlets" : 2,
									"numoutlets" : 1,
									"outlettype" : [ "bang" ],
									"patching_rect" : [ 563.0, 142.0, 56.0, 22.0 ],
									"text" : "metro 30"
								}

							}
, 							{
								"box" : 								{
									"id" : "obj-75",
									"maxclass" : "newobj",
									"numinlets" : 5,
									"numoutlets" : 4,
									"outlettype" : [ "int", "", "", "int" ],
									"patching_rect" : [ 563.0, 178.0, 65.0, 22.0 ],
									"text" : "counter 30"
								}

							}
, 							{
								"box" : 								{
									"id" : "obj-70",
									"maxclass" : "newobj",
									"numinlets" : 1,
									"numoutlets" : 1,
									"outlettype" : [ "float" ],
									"patching_rect" : [ 563.0, 258.0, 24.0, 22.0 ],
									"text" : "sin"
								}

							}
, 							{
								"box" : 								{
									"id" : "obj-22",
									"maxclass" : "message",
									"numinlets" : 2,
									"numoutlets" : 1,
									"outlettype" : [ "" ],
									"patching_rect" : [ 457.0, 168.0, 29.5, 22.0 ],
									"text" : "0"
								}

							}
, 							{
								"box" : 								{
									"id" : "obj-17",
									"maxclass" : "message",
									"numinlets" : 2,
									"numoutlets" : 1,
									"outlettype" : [ "" ],
									"patching_rect" : [ 457.0, 226.0, 55.0, 22.0 ],
									"text" : "alpha $1"
								}

							}
, 							{
								"box" : 								{
									"blinktime" : 20,
									"id" : "obj-5",
									"maxclass" : "textbutton",
									"numinlets" : 1,
									"numoutlets" : 3,
									"outlettype" : [ "", "", "int" ],
									"parameter_enable" : 0,
									"patching_rect" : [ 64.0, 320.0, 115.0, 115.0 ],
									"presentation" : 1,
									"presentation_rect" : [ 15.5, 15.5, 94.0, 94.0 ],
									"rounded" : 120.0,
									"style" : "Small Text",
									"text" : "HOUSE",
									"texton" : "POP",
									"truncate" : 0,
									"usebgoncolor" : 1
								}

							}
, 							{
								"box" : 								{
									"id" : "obj-36",
									"maxclass" : "button",
									"numinlets" : 1,
									"numoutlets" : 1,
									"outlettype" : [ "bang" ],
									"parameter_enable" : 0,
									"patching_rect" : [ 64.0, 166.0, 24.0, 24.0 ]
								}

							}
, 							{
								"box" : 								{
									"id" : "obj-33",
									"maxclass" : "comment",
									"numinlets" : 1,
									"numoutlets" : 0,
									"patching_rect" : [ 92.0, 168.0, 87.0, 20.0 ],
									"text" : "Inactive Genre"
								}

							}
, 							{
								"box" : 								{
									"id" : "obj-31",
									"maxclass" : "comment",
									"numinlets" : 1,
									"numoutlets" : 0,
									"patching_rect" : [ 271.0, 166.0, 78.0, 20.0 ],
									"text" : "Active Genre"
								}

							}
, 							{
								"box" : 								{
									"id" : "obj-29",
									"maxclass" : "button",
									"numinlets" : 1,
									"numoutlets" : 1,
									"outlettype" : [ "bang" ],
									"parameter_enable" : 0,
									"patching_rect" : [ 243.0, 166.0, 24.0, 24.0 ]
								}

							}
, 							{
								"box" : 								{
									"id" : "obj-26",
									"maxclass" : "message",
									"numinlets" : 2,
									"numoutlets" : 1,
									"outlettype" : [ "" ],
									"patching_rect" : [ 244.0, 226.0, 168.0, 22.0 ],
									"text" : "bgoncolor 0.91 0.282 0.333 1."
								}

							}
, 							{
								"box" : 								{
									"id" : "obj-27",
									"maxclass" : "message",
									"numinlets" : 2,
									"numoutlets" : 1,
									"outlettype" : [ "" ],
									"patching_rect" : [ 243.0, 196.0, 155.0, 22.0 ],
									"text" : "bgcolor 0.91 0.282 0.333 1."
								}

							}
, 							{
								"box" : 								{
									"id" : "obj-25",
									"maxclass" : "message",
									"numinlets" : 2,
									"numoutlets" : 1,
									"outlettype" : [ "" ],
									"patching_rect" : [ 64.0, 226.0, 175.0, 22.0 ],
									"text" : "bgoncolor 0.741 0.451 0.329 1."
								}

							}
, 							{
								"box" : 								{
									"id" : "obj-21",
									"maxclass" : "message",
									"numinlets" : 2,
									"numoutlets" : 1,
									"outlettype" : [ "" ],
									"patching_rect" : [ 64.0, 196.0, 141.0, 22.0 ],
									"text" : "bgcolor 1. 0.608 0.443 1."
								}

							}
, 							{
								"box" : 								{
									"alpha" : 0.0,
									"autofit" : 1,
									"forceaspect" : 1,
									"id" : "obj-8",
									"maxclass" : "fpic",
									"numinlets" : 1,
									"numoutlets" : 1,
									"outlettype" : [ "jit_matrix" ],
									"patching_rect" : [ 48.0, 305.0, 147.0, 147.0 ],
									"pic" : "Macintosh HD:/Users/olivergetz/Documents/MCT/Fall 2022/Applied Music Tech/UI Assets/resources/images/fuzz-ui-btn_genre_glow.png",
									"presentation" : 1,
									"presentation_rect" : [ 2.25, 2.25, 120.5, 120.5 ]
								}

							}
 ],
						"lines" : [ 							{
								"patchline" : 								{
									"destination" : [ "obj-78", 0 ],
									"midpoints" : [ 412.5, 141.0, 549.0, 141.0, 549.0, 102.0, 572.5, 102.0 ],
									"source" : [ "obj-12", 0 ]
								}

							}
, 							{
								"patchline" : 								{
									"destination" : [ "obj-12", 0 ],
									"source" : [ "obj-14", 0 ]
								}

							}
, 							{
								"patchline" : 								{
									"destination" : [ "obj-8", 0 ],
									"midpoints" : [ 466.5, 287.0, 57.5, 287.0 ],
									"source" : [ "obj-17", 0 ]
								}

							}
, 							{
								"patchline" : 								{
									"destination" : [ "obj-36", 0 ],
									"source" : [ "obj-2", 0 ]
								}

							}
, 							{
								"patchline" : 								{
									"destination" : [ "obj-5", 0 ],
									"source" : [ "obj-21", 0 ]
								}

							}
, 							{
								"patchline" : 								{
									"destination" : [ "obj-12", 1 ],
									"midpoints" : [ 466.5, 192.0, 447.0, 192.0, 447.0, 102.0, 425.5, 102.0 ],
									"order" : 1,
									"source" : [ "obj-22", 0 ]
								}

							}
, 							{
								"patchline" : 								{
									"destination" : [ "obj-17", 0 ],
									"order" : 0,
									"source" : [ "obj-22", 0 ]
								}

							}
, 							{
								"patchline" : 								{
									"destination" : [ "obj-5", 0 ],
									"source" : [ "obj-24", 0 ]
								}

							}
, 							{
								"patchline" : 								{
									"destination" : [ "obj-5", 0 ],
									"source" : [ "obj-25", 0 ]
								}

							}
, 							{
								"patchline" : 								{
									"destination" : [ "obj-5", 0 ],
									"hidden" : 1,
									"midpoints" : [ 253.5, 295.5, 73.5, 295.5 ],
									"source" : [ "obj-26", 0 ]
								}

							}
, 							{
								"patchline" : 								{
									"destination" : [ "obj-5", 0 ],
									"midpoints" : [ 252.5, 219.0, 240.0, 219.0, 240.0, 279.0, 73.5, 279.0 ],
									"source" : [ "obj-27", 0 ]
								}

							}
, 							{
								"patchline" : 								{
									"destination" : [ "obj-24", 0 ],
									"source" : [ "obj-28", 0 ]
								}

							}
, 							{
								"patchline" : 								{
									"destination" : [ "obj-26", 0 ],
									"order" : 1,
									"source" : [ "obj-29", 0 ]
								}

							}
, 							{
								"patchline" : 								{
									"destination" : [ "obj-27", 0 ],
									"order" : 2,
									"source" : [ "obj-29", 0 ]
								}

							}
, 							{
								"patchline" : 								{
									"destination" : [ "obj-9", 0 ],
									"midpoints" : [ 252.5, 192.0, 392.0, 192.0, 392.0, 155.0, 412.5, 155.0 ],
									"order" : 0,
									"source" : [ "obj-29", 0 ]
								}

							}
, 							{
								"patchline" : 								{
									"destination" : [ "obj-5", 0 ],
									"midpoints" : [ -129.5, 189.0, -129.0, 189.0, -129.0, 306.0, 73.5, 306.0 ],
									"source" : [ "obj-3", 0 ]
								}

							}
, 							{
								"patchline" : 								{
									"destination" : [ "obj-37", 0 ],
									"source" : [ "obj-30", 0 ]
								}

							}
, 							{
								"patchline" : 								{
									"destination" : [ "obj-3", 0 ],
									"source" : [ "obj-32", 0 ]
								}

							}
, 							{
								"patchline" : 								{
									"destination" : [ "obj-21", 0 ],
									"order" : 2,
									"source" : [ "obj-36", 0 ]
								}

							}
, 							{
								"patchline" : 								{
									"destination" : [ "obj-22", 0 ],
									"midpoints" : [ 73.5, 192.0, 60.0, 192.0, 60.0, 150.0, 466.5, 150.0 ],
									"order" : 0,
									"source" : [ "obj-36", 0 ]
								}

							}
, 							{
								"patchline" : 								{
									"destination" : [ "obj-25", 0 ],
									"order" : 1,
									"source" : [ "obj-36", 0 ]
								}

							}
, 							{
								"patchline" : 								{
									"destination" : [ "obj-39", 0 ],
									"source" : [ "obj-37", 0 ]
								}

							}
, 							{
								"patchline" : 								{
									"destination" : [ "obj-24", 0 ],
									"source" : [ "obj-39", 0 ]
								}

							}
, 							{
								"patchline" : 								{
									"destination" : [ "obj-40", 0 ],
									"source" : [ "obj-39", 1 ]
								}

							}
, 							{
								"patchline" : 								{
									"destination" : [ "obj-41", 0 ],
									"source" : [ "obj-39", 2 ]
								}

							}
, 							{
								"patchline" : 								{
									"destination" : [ "obj-14", 0 ],
									"source" : [ "obj-4", 0 ]
								}

							}
, 							{
								"patchline" : 								{
									"destination" : [ "obj-5", 0 ],
									"source" : [ "obj-40", 0 ]
								}

							}
, 							{
								"patchline" : 								{
									"destination" : [ "obj-5", 0 ],
									"source" : [ "obj-41", 0 ]
								}

							}
, 							{
								"patchline" : 								{
									"destination" : [ "obj-38", 0 ],
									"order" : 1,
									"source" : [ "obj-5", 0 ]
								}

							}
, 							{
								"patchline" : 								{
									"destination" : [ "obj-6", 0 ],
									"order" : 0,
									"source" : [ "obj-5", 0 ]
								}

							}
, 							{
								"patchline" : 								{
									"destination" : [ "obj-7", 0 ],
									"source" : [ "obj-5", 1 ]
								}

							}
, 							{
								"patchline" : 								{
									"destination" : [ "obj-1", 0 ],
									"source" : [ "obj-6", 1 ]
								}

							}
, 							{
								"patchline" : 								{
									"destination" : [ "obj-29", 0 ],
									"midpoints" : [ 112.0, 521.0, 217.25, 521.0, 217.25, 155.0, 252.5, 155.0 ],
									"source" : [ "obj-6", 0 ]
								}

							}
, 							{
								"patchline" : 								{
									"destination" : [ "obj-81", 0 ],
									"source" : [ "obj-70", 0 ]
								}

							}
, 							{
								"patchline" : 								{
									"destination" : [ "obj-89", 0 ],
									"source" : [ "obj-75", 0 ]
								}

							}
, 							{
								"patchline" : 								{
									"destination" : [ "obj-75", 0 ],
									"source" : [ "obj-76", 0 ]
								}

							}
, 							{
								"patchline" : 								{
									"destination" : [ "obj-76", 0 ],
									"source" : [ "obj-78", 0 ]
								}

							}
, 							{
								"patchline" : 								{
									"destination" : [ "obj-88", 0 ],
									"source" : [ "obj-81", 0 ]
								}

							}
, 							{
								"patchline" : 								{
									"destination" : [ "obj-17", 0 ],
									"midpoints" : [ 572.5, 342.0, 522.0, 342.0, 522.0, 213.0, 466.5, 213.0 ],
									"source" : [ "obj-88", 0 ]
								}

							}
, 							{
								"patchline" : 								{
									"destination" : [ "obj-70", 0 ],
									"source" : [ "obj-89", 0 ]
								}

							}
, 							{
								"patchline" : 								{
									"destination" : [ "obj-12", 1 ],
									"midpoints" : [ 412.5, 192.0, 439.0, 192.0, 439.0, 102.0, 425.5, 102.0 ],
									"source" : [ "obj-9", 0 ]
								}

							}
 ],
						"styles" : [ 							{
								"name" : "FUZZ Producer Station",
								"parentstyle" : "",
								"multi" : 0
							}
, 							{
								"name" : "Large Text",
								"default" : 								{
									"fontsize" : [ 64.0 ],
									"elementcolor" : [ 0.741176470588235, 0.450980392156863, 0.329411764705882, 1.0 ],
									"fontname" : [ "AlternateGothic-NoOne" ],
									"bgcolor" : [ 1.0, 0.607843137254902, 0.443137254901961, 1.0 ],
									"color" : [ 0.176470588235294, 0.188235294117647, 0.27843137254902, 1.0 ]
								}
,
								"parentstyle" : "Medium Text",
								"multi" : 0
							}
, 							{
								"name" : "Medium Text",
								"default" : 								{
									"fontsize" : [ 36.0 ],
									"elementcolor" : [ 0.741176470588235, 0.450980392156863, 0.329411764705882, 1.0 ],
									"fontname" : [ "AlternateGothic-NoOne" ],
									"fontface" : [ 0 ],
									"bgcolor" : [ 1.0, 0.607843137254902, 0.443137254901961, 1.0 ],
									"color" : [ 0.176470588235294, 0.188235294117647, 0.27843137254902, 1.0 ]
								}
,
								"parentstyle" : "Small Text",
								"multi" : 0
							}
, 							{
								"name" : "Small Text",
								"default" : 								{
									"fontsize" : [ 30.0 ],
									"elementcolor" : [ 0.741176470588235, 0.450980392156863, 0.329411764705882, 1.0 ],
									"fontname" : [ "AlternateGothic-NoOne" ],
									"bgcolor" : [ 1.0, 0.607843137254902, 0.443137254901961, 1.0 ],
									"color" : [ 0.176470588235294, 0.188235294117647, 0.27843137254902, 1.0 ]
								}
,
								"parentstyle" : "",
								"multi" : 0
							}
 ]
					}
,
					"patching_rect" : [ 433.333334565162659, 419.000003337860107, 119.333332419395447, 119.333332419395447 ],
					"presentation" : 1,
					"presentation_rect" : [ 440.666666865348816, 411.400001883506775, 121.333331823348999, 120.80116840238918 ],
					"viewvisibility" : 1
				}

			}
, 			{
				"box" : 				{
					"bgmode" : 0,
					"border" : 0,
					"clickthrough" : 0,
					"enablehscroll" : 0,
					"enablevscroll" : 0,
					"id" : "obj-185",
					"lockeddragscroll" : 0,
					"maxclass" : "bpatcher",
					"name" : "FUZZ_UI-Genre_Button.maxpat",
					"numinlets" : 3,
					"numoutlets" : 2,
					"offset" : [ 0.0, 0.0 ],
					"outlettype" : [ "", "" ],
					"patching_rect" : [ 739.000009655952454, 423.000003337860107, 119.333332419395447, 119.333332419395447 ],
					"presentation" : 1,
					"presentation_rect" : [ 773.0, 411.400001883506775, 121.333331823348999, 120.80116840238918 ],
					"viewvisibility" : 1
				}

			}
, 			{
				"box" : 				{
					"id" : "obj-184",
					"maxclass" : "comment",
					"numinlets" : 1,
					"numoutlets" : 0,
					"patching_rect" : [ 322.66667628288269, 762.666689395904541, 150.0, 20.0 ],
					"text" : "Toggle Pulse Animation"
				}

			}
, 			{
				"box" : 				{
					"id" : "obj-182",
					"maxclass" : "toggle",
					"numinlets" : 1,
					"numoutlets" : 1,
					"outlettype" : [ "int" ],
					"parameter_enable" : 0,
					"patching_rect" : [ 237.333340406417847, 762.666689395904541, 74.666668176651001, 74.666668176651001 ]
				}

			}
, 			{
				"box" : 				{
					"id" : "obj-165",
					"maxclass" : "comment",
					"numinlets" : 1,
					"numoutlets" : 0,
					"patching_rect" : [ 460.0, 52.000000999999997, 359.0, 73.0 ],
					"presentation" : 1,
					"presentation_rect" : [ 460.0, 52.000000999999997, 359.0, 73.0 ],
					"style" : "Title Text",
					"text" : "VELG EN SJANGER!",
					"textjustification" : 0
				}

			}
, 			{
				"box" : 				{
					"id" : "obj-154",
					"linecount" : 3,
					"maxclass" : "comment",
					"numinlets" : 1,
					"numoutlets" : 0,
					"patching_rect" : [ 1884.000056147575378, 1104.90000182390213, 151.0, 47.0 ],
					"text" : "Note: Steps 0 and 1 of the multi slider should be the same note."
				}

			}
, 			{
				"box" : 				{
					"bgcolor" : [ 0.2, 0.2, 0.2, 0.0 ],
					"id" : "obj-66",
					"maxclass" : "led",
					"numinlets" : 1,
					"numoutlets" : 1,
					"offcolor" : [ 0.176470588235294, 0.188235294117647, 0.27843137254902, 1.0 ],
					"oncolor" : [ 1.0, 0.992156862745098, 0.509803921568627, 1.0 ],
					"outlettype" : [ "int" ],
					"parameter_enable" : 0,
					"patching_rect" : [ 1792.0, 952.200001895427704, 29.0, 29.0 ],
					"presentation" : 1,
					"presentation_rect" : [ 2162.000009298324585, 245.066667675971985, 59.666667580604553, 59.666667580604553 ]
				}

			}
, 			{
				"box" : 				{
					"bgcolor" : [ 0.2, 0.2, 0.2, 0.0 ],
					"id" : "obj-67",
					"maxclass" : "led",
					"numinlets" : 1,
					"numoutlets" : 1,
					"offcolor" : [ 0.176470588235294, 0.188235294117647, 0.27843137254902, 1.0 ],
					"oncolor" : [ 1.0, 0.992156862745098, 0.509803921568627, 1.0 ],
					"outlettype" : [ "int" ],
					"parameter_enable" : 0,
					"patching_rect" : [ 1833.0, 952.200001895427704, 29.0, 29.0 ],
					"presentation" : 1,
					"presentation_rect" : [ 2269.666677951812744, 243.733334302902222, 59.666667580604553, 59.666667580604553 ]
				}

			}
, 			{
				"box" : 				{
					"bgcolor" : [ 0.2, 0.2, 0.2, 0.0 ],
					"id" : "obj-68",
					"maxclass" : "led",
					"numinlets" : 1,
					"numoutlets" : 1,
					"offcolor" : [ 0.176470588235294, 0.188235294117647, 0.27843137254902, 1.0 ],
					"oncolor" : [ 1.0, 0.992156862745098, 0.509803921568627, 1.0 ],
					"outlettype" : [ "int" ],
					"parameter_enable" : 0,
					"patching_rect" : [ 1711.0, 952.200001895427704, 29.0, 29.0 ],
					"presentation" : 1,
					"presentation_rect" : [ 1946.333338618278503, 245.066667675971985, 59.666667580604553, 59.666667580604553 ]
				}

			}
, 			{
				"box" : 				{
					"bgcolor" : [ 0.2, 0.2, 0.2, 0.0 ],
					"id" : "obj-69",
					"maxclass" : "led",
					"numinlets" : 1,
					"numoutlets" : 1,
					"offcolor" : [ 0.176470588235294, 0.188235294117647, 0.27843137254902, 1.0 ],
					"oncolor" : [ 1.0, 0.992156862745098, 0.509803921568627, 1.0 ],
					"outlettype" : [ "int" ],
					"parameter_enable" : 0,
					"patching_rect" : [ 1752.0, 952.200001895427704, 29.0, 29.0 ],
					"presentation" : 1,
					"presentation_rect" : [ 2051.333340525627136, 245.066667675971985, 59.666667580604553, 59.666667580604553 ]
				}

			}
, 			{
				"box" : 				{
					"bgcolor" : [ 0.2, 0.2, 0.2, 0.0 ],
					"id" : "obj-64",
					"maxclass" : "led",
					"numinlets" : 1,
					"numoutlets" : 1,
					"offcolor" : [ 0.176470588235294, 0.188235294117647, 0.27843137254902, 1.0 ],
					"oncolor" : [ 1.0, 0.992156862745098, 0.509803921568627, 1.0 ],
					"outlettype" : [ "int" ],
					"parameter_enable" : 0,
					"patching_rect" : [ 1627.0, 952.200001895427704, 29.0, 29.0 ],
					"presentation" : 1,
					"presentation_rect" : [ 1727.666667938232422, 246.400001049041748, 59.666667580604553, 59.666667580604553 ]
				}

			}
, 			{
				"box" : 				{
					"bgcolor" : [ 0.2, 0.2, 0.2, 0.0 ],
					"id" : "obj-65",
					"maxclass" : "led",
					"numinlets" : 1,
					"numoutlets" : 1,
					"offcolor" : [ 0.176470588235294, 0.188235294117647, 0.27843137254902, 1.0 ],
					"oncolor" : [ 1.0, 0.992156862745098, 0.509803921568627, 1.0 ],
					"outlettype" : [ "int" ],
					"parameter_enable" : 0,
					"patching_rect" : [ 1668.0, 952.200001895427704, 29.0, 29.0 ],
					"presentation" : 1,
					"presentation_rect" : [ 1836.666669964790344, 246.400001049041748, 59.666667580604553, 59.666667580604553 ]
				}

			}
, 			{
				"box" : 				{
					"bgcolor" : [ 0.2, 0.2, 0.2, 0.0 ],
					"id" : "obj-60",
					"maxclass" : "led",
					"numinlets" : 1,
					"numoutlets" : 1,
					"offcolor" : [ 0.176470588235294, 0.188235294117647, 0.27843137254902, 1.0 ],
					"oncolor" : [ 1.0, 0.992156862745098, 0.509803921568627, 1.0 ],
					"outlettype" : [ "int" ],
					"parameter_enable" : 0,
					"patching_rect" : [ 1546.0, 952.200001895427704, 29.0, 29.0 ],
					"presentation" : 1,
					"presentation_rect" : [ 1506.666663765907288, 246.400001049041748, 59.666667580604553, 59.666667580604553 ]
				}

			}
, 			{
				"box" : 				{
					"bgcolor" : [ 0.2, 0.2, 0.2, 0.0 ],
					"id" : "obj-61",
					"maxclass" : "led",
					"numinlets" : 1,
					"numoutlets" : 1,
					"offcolor" : [ 0.176470588235294, 0.188235294117647, 0.27843137254902, 1.0 ],
					"oncolor" : [ 1.0, 0.992156862745098, 0.509803921568627, 1.0 ],
					"outlettype" : [ "int" ],
					"parameter_enable" : 0,
					"patching_rect" : [ 1587.0, 952.200001895427704, 29.0, 29.0 ],
					"presentation" : 1,
					"presentation_rect" : [ 1620.999999284744263, 246.400001049041748, 59.666667580604553, 59.666667580604553 ]
				}

			}
, 			{
				"box" : 				{
					"bgcolor" : [ 0.105882352941176, 0.6, 0.545098039215686, 0.0 ],
					"candicane2" : [ 0.145098, 0.203922, 0.356863, 1.0 ],
					"candicane3" : [ 0.290196, 0.411765, 0.713726, 1.0 ],
					"candicane4" : [ 0.439216, 0.619608, 0.070588, 1.0 ],
					"candicane5" : [ 0.584314, 0.827451, 0.431373, 1.0 ],
					"candicane6" : [ 0.733333, 0.035294, 0.788235, 1.0 ],
					"candicane7" : [ 0.878431, 0.243137, 0.145098, 1.0 ],
					"candicane8" : [ 0.027451, 0.447059, 0.501961, 1.0 ],
					"contdata" : 1,
					"id" : "obj-28",
					"maxclass" : "multislider",
					"numinlets" : 1,
					"numoutlets" : 2,
					"outlettype" : [ "", "" ],
					"parameter_enable" : 0,
					"patching_rect" : [ 1536.0, 982.000001847743988, 338.0, 163.0 ],
					"presentation" : 1,
					"presentation_rect" : [ 1482.5, 310.533319532871246, 868.0, 358.666682362556458 ],
					"setminmax" : [ 1.0, 10.0 ],
					"settype" : 0,
					"size" : 8,
					"slidercolor" : [ 0.909803921568627, 0.282352941176471, 0.333333333333333, 1.0 ],
					"spacing" : 5,
					"style" : "default",
					"thickness" : 30
				}

			}
, 			{
				"box" : 				{
					"angle" : 270.0,
					"bgcolor" : [ 0.086274509803922, 0.505882352941176, 0.458823529411765, 1.0 ],
					"id" : "obj-53",
					"maxclass" : "panel",
					"mode" : 0,
					"numinlets" : 1,
					"numoutlets" : 0,
					"patching_rect" : [ 1537.0, 1125.90000182390213, 338.0, 19.0 ],
					"presentation" : 1,
					"presentation_rect" : [ 1482.5, 625.233324587345123, 868.0, 31.000000357627869 ],
					"proportion" : 0.5,
					"rounded" : 0
				}

			}
, 			{
				"box" : 				{
					"angle" : 270.0,
					"bgcolor" : [ 0.086274509803922, 0.505882352941176, 0.458823529411765, 1.0 ],
					"id" : "obj-50",
					"maxclass" : "panel",
					"mode" : 0,
					"numinlets" : 1,
					"numoutlets" : 0,
					"patching_rect" : [ 1537.0, 981.200001895427704, 338.0, 18.0 ],
					"presentation" : 1,
					"presentation_rect" : [ 1482.5, 466.866660296916962, 868.0, 39.666664600372314 ],
					"proportion" : 0.5,
					"rounded" : 0
				}

			}
, 			{
				"box" : 				{
					"angle" : 270.0,
					"bgcolor" : [ 0.086274509803922, 0.505882352941176, 0.458823529411765, 1.0 ],
					"id" : "obj-49",
					"maxclass" : "panel",
					"mode" : 0,
					"numinlets" : 1,
					"numoutlets" : 0,
					"patching_rect" : [ 1537.0, 1017.600001811981201, 338.0, 18.0 ],
					"presentation" : 1,
					"presentation_rect" : [ 1482.5, 305.400001883506775, 868.0, 40.666667342185974 ],
					"proportion" : 0.5,
					"rounded" : 0
				}

			}
, 			{
				"box" : 				{
					"angle" : 270.0,
					"bgcolor" : [ 0.086274509803922, 0.505882352941176, 0.458823529411765, 1.0 ],
					"id" : "obj-43",
					"maxclass" : "panel",
					"mode" : 0,
					"numinlets" : 1,
					"numoutlets" : 0,
					"patching_rect" : [ 1537.0, 1054.500001847743988, 338.0, 18.5 ],
					"presentation" : 1,
					"presentation_rect" : [ 1484.833325505256653, 387.166652977466583, 865.500020265579224, 39.833333969116211 ],
					"proportion" : 0.5,
					"rounded" : 0
				}

			}
, 			{
				"box" : 				{
					"angle" : 270.0,
					"bgcolor" : [ 0.086274509803922, 0.505882352941176, 0.458823529411765, 1.0 ],
					"id" : "obj-41",
					"maxclass" : "panel",
					"mode" : 0,
					"numinlets" : 1,
					"numoutlets" : 0,
					"patching_rect" : [ 1537.0, 1091.40000182390213, 338.0, 16.0 ],
					"presentation" : 1,
					"presentation_rect" : [ 1484.833325505256653, 545.399989902973175, 865.666674494743347, 40.000000715255737 ],
					"proportion" : 0.5,
					"rounded" : 0
				}

			}
, 			{
				"box" : 				{
					"id" : "obj-148",
					"maxclass" : "comment",
					"numinlets" : 1,
					"numoutlets" : 0,
					"patching_rect" : [ 54.0, 745.0, 159.0, 20.0 ],
					"text" : "required to change offset"
				}

			}
, 			{
				"box" : 				{
					"comment" : "",
					"id" : "obj-142",
					"index" : 0,
					"maxclass" : "inlet",
					"numinlets" : 0,
					"numoutlets" : 1,
					"outlettype" : [ "" ],
					"patching_rect" : [ 14.0, 740.0, 30.0, 30.0 ]
				}

			}
, 			{
				"box" : 				{
					"fontface" : 0,
					"id" : "obj-141",
					"maxclass" : "newobj",
					"numinlets" : 1,
					"numoutlets" : 2,
					"outlettype" : [ "", "" ],
					"patching_rect" : [ 14.0, 786.0, 67.0, 22.0 ],
					"save" : [ "#N", "thispatcher", ";", "#Q", "end", ";" ],
					"text" : "thispatcher"
				}

			}
, 			{
				"box" : 				{
					"autofit" : 1,
					"forceaspect" : 1,
					"id" : "obj-140",
					"maxclass" : "fpic",
					"numinlets" : 1,
					"numoutlets" : 1,
					"outlettype" : [ "jit_matrix" ],
					"patching_rect" : [ 2560.0, 0.0, 1280.0, 720.0 ],
					"pic" : "Macintosh HD:/Users/olivergetz/Documents/MCT/Fall 2022/Applied Music Tech/UI Assets/resources/images/fuzz-ui-fx_background.jpg",
					"presentation" : 1,
					"presentation_rect" : [ 2560.0, 0.0, 1280.0, 720.0 ]
				}

			}
, 			{
				"box" : 				{
					"id" : "obj-112",
					"maxclass" : "comment",
					"numinlets" : 1,
					"numoutlets" : 0,
					"patching_rect" : [ 1575.66667240858078, 784.333343625068665, 150.0, 20.0 ],
					"text" : "Replace with sequencer"
				}

			}
, 			{
				"box" : 				{
					"id" : "obj-105",
					"maxclass" : "newobj",
					"numinlets" : 5,
					"numoutlets" : 4,
					"outlettype" : [ "int", "", "", "int" ],
					"patching_rect" : [ 1546.0, 836.333345234394073, 61.0, 22.0 ],
					"text" : "counter 7"
				}

			}
, 			{
				"box" : 				{
					"id" : "obj-104",
					"maxclass" : "toggle",
					"numinlets" : 1,
					"numoutlets" : 1,
					"outlettype" : [ "int" ],
					"parameter_enable" : 0,
					"patching_rect" : [ 1546.0, 782.333343625068665, 24.0, 24.0 ]
				}

			}
, 			{
				"box" : 				{
					"id" : "obj-101",
					"maxclass" : "newobj",
					"numinlets" : 2,
					"numoutlets" : 1,
					"outlettype" : [ "bang" ],
					"patching_rect" : [ 1546.0, 811.000011146068573, 63.0, 22.0 ],
					"text" : "metro 250"
				}

			}
, 			{
				"box" : 				{
					"id" : "obj-100",
					"maxclass" : "newobj",
					"numinlets" : 9,
					"numoutlets" : 9,
					"outlettype" : [ "bang", "bang", "bang", "bang", "bang", "bang", "bang", "bang", "" ],
					"patching_rect" : [ 1546.0, 910.000014007091522, 104.0, 22.0 ],
					"text" : "sel 0 1 2 3 4 5 6 7"
				}

			}
, 			{
				"box" : 				{
					"angle" : 270.0,
					"bgcolor" : [ 0.164705882352941, 0.996078431372549, 0.0, 0.15 ],
					"border" : 2,
					"bordercolor" : [ 0.0, 0.0, 0.0, 1.0 ],
					"id" : "obj-113",
					"maxclass" : "panel",
					"mode" : 0,
					"numinlets" : 1,
					"numoutlets" : 0,
					"patching_rect" : [ 1537.0, 776.333345025777817, 203.0, 91.6666639149189 ],
					"proportion" : 0.5
				}

			}
, 			{
				"box" : 				{
					"autofit" : 1,
					"forceaspect" : 1,
					"id" : "obj-137",
					"maxclass" : "fpic",
					"numinlets" : 1,
					"numoutlets" : 1,
					"outlettype" : [ "jit_matrix" ],
					"patching_rect" : [ 0.0, 0.0, 1280.0, 720.0 ],
					"pic" : "Macintosh HD:/Users/olivergetz/Documents/MCT/Fall 2022/Applied Music Tech/UI Assets/resources/images/fuzz-ui-genres_background.jpg",
					"presentation" : 1,
					"presentation_rect" : [ 0.0, 0.0, 1280.0, 720.0 ]
				}

			}
, 			{
				"box" : 				{
					"angle" : 270.0,
					"bgcolor" : [ 0.105882352941176, 0.6, 0.545098039215686, 1.0 ],
					"id" : "obj-39",
					"maxclass" : "panel",
					"mode" : 0,
					"numinlets" : 1,
					"numoutlets" : 0,
					"patching_rect" : [ 1537.0, 981.200001895427704, 338.0, 69.800000011920929 ],
					"presentation" : 1,
					"presentation_rect" : [ 1482.5, 305.400001883506775, 868.0, 91.800000011920929 ],
					"proportion" : 0.5,
					"rounded" : 0
				}

			}
, 			{
				"box" : 				{
					"angle" : 270.0,
					"bgcolor" : [ 1.0, 0.607843137254902, 0.443137254901961, 1.0 ],
					"bordercolor" : [ 0.807843137254902, 0.898039215686275, 0.909803921568627, 0.0 ],
					"id" : "obj-52",
					"maxclass" : "panel",
					"mode" : 0,
					"numinlets" : 1,
					"numoutlets" : 0,
					"patching_rect" : [ 1537.0, 952.200001895427704, 338.0, 39.0 ],
					"presentation" : 1,
					"presentation_rect" : [ 1482.5, 243.53331845998764, 868.0, 112.333335518836975 ],
					"proportion" : 0.5,
					"rounded" : 30
				}

			}
, 			{
				"box" : 				{
					"angle" : 270.0,
					"bgcolor" : [ 0.086274509803922, 0.505882352941176, 0.458823529411765, 1.0 ],
					"id" : "obj-151",
					"maxclass" : "panel",
					"mode" : 0,
					"numinlets" : 1,
					"numoutlets" : 0,
					"patching_rect" : [ 1537.0, 1132.90000182390213, 338.0, 19.0 ],
					"presentation" : 1,
					"presentation_rect" : [ 1482.5, 643.533335030078888, 868.0, 25.666666865348816 ],
					"proportion" : 0.5,
					"rounded" : 30
				}

			}
, 			{
				"box" : 				{
					"angle" : 270.0,
					"bgcolor" : [ 0.105882352941176, 0.6, 0.545098039215686, 1.0 ],
					"id" : "obj-150",
					"maxclass" : "panel",
					"mode" : 0,
					"numinlets" : 1,
					"numoutlets" : 0,
					"patching_rect" : [ 1537.0, 1024.71538651077708, 338.0, 119.284615396571553 ],
					"presentation" : 1,
					"presentation_rect" : [ 1482.5, 387.400001883506775, 868.0, 281.800000011920929 ],
					"proportion" : 0.5,
					"rounded" : 30
				}

			}
, 			{
				"box" : 				{
					"autofit" : 1,
					"forceaspect" : 1,
					"id" : "obj-139",
					"maxclass" : "fpic",
					"numinlets" : 1,
					"numoutlets" : 1,
					"outlettype" : [ "jit_matrix" ],
					"patching_rect" : [ 1282.0, 0.0, 1280.0, 720.0 ],
					"pic" : "Macintosh HD:/Users/olivergetz/Documents/MCT/Fall 2022/Applied Music Tech/UI Assets/resources/images/fuzz-ui-melody_background.jpg",
					"presentation" : 1,
					"presentation_rect" : [ 1280.0, 0.0, 1280.0, 720.0 ]
				}

			}
 ],
		"lines" : [ 			{
				"patchline" : 				{
					"destination" : [ "obj-60", 0 ],
					"source" : [ "obj-100", 0 ]
				}

			}
, 			{
				"patchline" : 				{
					"destination" : [ "obj-61", 0 ],
					"source" : [ "obj-100", 1 ]
				}

			}
, 			{
				"patchline" : 				{
					"destination" : [ "obj-64", 0 ],
					"source" : [ "obj-100", 2 ]
				}

			}
, 			{
				"patchline" : 				{
					"destination" : [ "obj-65", 0 ],
					"source" : [ "obj-100", 3 ]
				}

			}
, 			{
				"patchline" : 				{
					"destination" : [ "obj-66", 0 ],
					"source" : [ "obj-100", 6 ]
				}

			}
, 			{
				"patchline" : 				{
					"destination" : [ "obj-67", 0 ],
					"source" : [ "obj-100", 7 ]
				}

			}
, 			{
				"patchline" : 				{
					"destination" : [ "obj-68", 0 ],
					"source" : [ "obj-100", 4 ]
				}

			}
, 			{
				"patchline" : 				{
					"destination" : [ "obj-69", 0 ],
					"source" : [ "obj-100", 5 ]
				}

			}
, 			{
				"patchline" : 				{
					"destination" : [ "obj-105", 0 ],
					"source" : [ "obj-101", 0 ]
				}

			}
, 			{
				"patchline" : 				{
					"destination" : [ "obj-101", 0 ],
					"source" : [ "obj-104", 0 ]
				}

			}
, 			{
				"patchline" : 				{
					"destination" : [ "obj-100", 0 ],
					"source" : [ "obj-105", 0 ]
				}

			}
, 			{
				"patchline" : 				{
					"destination" : [ "obj-6", 0 ],
					"source" : [ "obj-12", 0 ]
				}

			}
, 			{
				"patchline" : 				{
					"destination" : [ "obj-141", 0 ],
					"source" : [ "obj-142", 0 ]
				}

			}
, 			{
				"patchline" : 				{
					"destination" : [ "obj-185", 2 ],
					"midpoints" : [ 246.833340406417847, 840.0, 726.0, 840.0, 726.0, 408.0, 848.8333420753479, 408.0 ],
					"order" : 4,
					"source" : [ "obj-182", 0 ]
				}

			}
, 			{
				"patchline" : 				{
					"destination" : [ "obj-186", 2 ],
					"midpoints" : [ 246.833340406417847, 840.0, 222.0, 840.0, 222.0, 405.0, 543.166666984558105, 405.0 ],
					"order" : 3,
					"source" : [ "obj-182", 0 ]
				}

			}
, 			{
				"patchline" : 				{
					"destination" : [ "obj-187", 2 ],
					"midpoints" : [ 246.833340406417847, 840.0, 711.000004291534424, 840.0, 711.000004291534424, 528.0, 690.166666209697723, 528.0 ],
					"order" : 2,
					"source" : [ "obj-182", 0 ]
				}

			}
, 			{
				"patchline" : 				{
					"destination" : [ "obj-189", 2 ],
					"midpoints" : [ 246.833340406417847, 845.333333849906921, 222.0, 845.333333849906921, 222.0, 267.0, 690.166666209697723, 267.0 ],
					"order" : 1,
					"source" : [ "obj-182", 0 ]
				}

			}
, 			{
				"patchline" : 				{
					"destination" : [ "obj-219", 2 ],
					"midpoints" : [ 246.833340406417847, 840.0, 719.000000238418579, 840.0, 719.000000238418579, 414.0, 690.166666209697723, 414.0 ],
					"order" : 0,
					"source" : [ "obj-182", 0 ]
				}

			}
, 			{
				"patchline" : 				{
					"destination" : [ "obj-189", 0 ],
					"source" : [ "obj-195", 0 ]
				}

			}
, 			{
				"patchline" : 				{
					"destination" : [ "obj-186", 0 ],
					"source" : [ "obj-196", 0 ]
				}

			}
, 			{
				"patchline" : 				{
					"destination" : [ "obj-104", 0 ],
					"source" : [ "obj-2", 0 ]
				}

			}
, 			{
				"patchline" : 				{
					"destination" : [ "obj-187", 0 ],
					"source" : [ "obj-201", 0 ]
				}

			}
, 			{
				"patchline" : 				{
					"destination" : [ "obj-185", 0 ],
					"source" : [ "obj-202", 0 ]
				}

			}
, 			{
				"patchline" : 				{
					"destination" : [ "obj-182", 0 ],
					"source" : [ "obj-203", 0 ]
				}

			}
, 			{
				"patchline" : 				{
					"destination" : [ "obj-219", 0 ],
					"source" : [ "obj-220", 0 ]
				}

			}
, 			{
				"patchline" : 				{
					"destination" : [ "obj-237", 0 ],
					"source" : [ "obj-234", 0 ]
				}

			}
, 			{
				"patchline" : 				{
					"destination" : [ "obj-241", 0 ],
					"source" : [ "obj-236", 0 ]
				}

			}
, 			{
				"patchline" : 				{
					"destination" : [ "obj-239", 0 ],
					"source" : [ "obj-237", 0 ]
				}

			}
, 			{
				"patchline" : 				{
					"destination" : [ "obj-204", 0 ],
					"source" : [ "obj-239", 0 ]
				}

			}
, 			{
				"patchline" : 				{
					"destination" : [ "obj-205", 0 ],
					"source" : [ "obj-240", 0 ]
				}

			}
, 			{
				"patchline" : 				{
					"destination" : [ "obj-240", 0 ],
					"source" : [ "obj-241", 0 ]
				}

			}
, 			{
				"patchline" : 				{
					"destination" : [ "obj-250", 0 ],
					"source" : [ "obj-243", 0 ]
				}

			}
, 			{
				"patchline" : 				{
					"destination" : [ "obj-250", 0 ],
					"midpoints" : [ 3634.5, 734.166672512888908, 2336.833364963531494, 734.166672512888908 ],
					"source" : [ "obj-246", 0 ]
				}

			}
, 			{
				"patchline" : 				{
					"destination" : [ "obj-251", 0 ],
					"source" : [ "obj-249", 0 ]
				}

			}
, 			{
				"patchline" : 				{
					"destination" : [ "obj-249", 0 ],
					"source" : [ "obj-250", 0 ]
				}

			}
, 			{
				"patchline" : 				{
					"destination" : [ "obj-195", 0 ],
					"order" : 4,
					"source" : [ "obj-4", 0 ]
				}

			}
, 			{
				"patchline" : 				{
					"destination" : [ "obj-196", 0 ],
					"order" : 3,
					"source" : [ "obj-4", 0 ]
				}

			}
, 			{
				"patchline" : 				{
					"destination" : [ "obj-201", 0 ],
					"order" : 2,
					"source" : [ "obj-4", 0 ]
				}

			}
, 			{
				"patchline" : 				{
					"destination" : [ "obj-202", 0 ],
					"order" : 1,
					"source" : [ "obj-4", 0 ]
				}

			}
, 			{
				"patchline" : 				{
					"destination" : [ "obj-220", 0 ],
					"order" : 0,
					"source" : [ "obj-4", 0 ]
				}

			}
, 			{
				"patchline" : 				{
					"destination" : [ "obj-81", 0 ],
					"source" : [ "obj-56", 0 ]
				}

			}
, 			{
				"patchline" : 				{
					"destination" : [ "obj-56", 0 ],
					"order" : 2,
					"source" : [ "obj-6", 1 ]
				}

			}
, 			{
				"patchline" : 				{
					"destination" : [ "obj-83", 0 ],
					"order" : 1,
					"source" : [ "obj-6", 1 ]
				}

			}
, 			{
				"patchline" : 				{
					"destination" : [ "obj-85", 0 ],
					"order" : 0,
					"source" : [ "obj-6", 1 ]
				}

			}
, 			{
				"patchline" : 				{
					"destination" : [ "obj-56", 1 ],
					"source" : [ "obj-63", 0 ]
				}

			}
, 			{
				"patchline" : 				{
					"destination" : [ "obj-234", 0 ],
					"midpoints" : [ 938.833360999999968, -24.0, 938.833360999999968, -24.0 ],
					"source" : [ "obj-77", 0 ]
				}

			}
, 			{
				"patchline" : 				{
					"destination" : [ "obj-77", 0 ],
					"source" : [ "obj-81", 0 ]
				}

			}
, 			{
				"patchline" : 				{
					"destination" : [ "obj-83", 1 ],
					"source" : [ "obj-82", 0 ]
				}

			}
, 			{
				"patchline" : 				{
					"destination" : [ "obj-86", 0 ],
					"source" : [ "obj-83", 0 ]
				}

			}
, 			{
				"patchline" : 				{
					"destination" : [ "obj-85", 1 ],
					"source" : [ "obj-84", 0 ]
				}

			}
, 			{
				"patchline" : 				{
					"destination" : [ "obj-88", 0 ],
					"source" : [ "obj-85", 0 ]
				}

			}
, 			{
				"patchline" : 				{
					"destination" : [ "obj-87", 0 ],
					"source" : [ "obj-86", 0 ]
				}

			}
, 			{
				"patchline" : 				{
					"destination" : [ "obj-236", 0 ],
					"midpoints" : [ 1085.833360999999968, -84.0, 1074.5, -84.0 ],
					"source" : [ "obj-87", 0 ]
				}

			}
, 			{
				"patchline" : 				{
					"destination" : [ "obj-89", 0 ],
					"source" : [ "obj-88", 0 ]
				}

			}
, 			{
				"patchline" : 				{
					"destination" : [ "obj-243", 0 ],
					"midpoints" : [ 1271.833360999999968, -53.5, 2354.5, -53.5 ],
					"order" : 1,
					"source" : [ "obj-89", 0 ]
				}

			}
, 			{
				"patchline" : 				{
					"destination" : [ "obj-246", 0 ],
					"midpoints" : [ 1271.833360999999968, -66.5, 3634.5, -66.5 ],
					"order" : 0,
					"source" : [ "obj-89", 0 ]
				}

			}
, 			{
				"patchline" : 				{
					"destination" : [ "obj-91", 0 ],
					"source" : [ "obj-90", 0 ]
				}

			}
, 			{
				"patchline" : 				{
					"destination" : [ "obj-12", 0 ],
					"source" : [ "obj-91", 0 ]
				}

			}
, 			{
				"patchline" : 				{
					"destination" : [ "obj-63", 0 ],
					"order" : 2,
					"source" : [ "obj-91", 1 ]
				}

			}
, 			{
				"patchline" : 				{
					"destination" : [ "obj-82", 0 ],
					"order" : 1,
					"source" : [ "obj-91", 1 ]
				}

			}
, 			{
				"patchline" : 				{
					"destination" : [ "obj-84", 0 ],
					"order" : 0,
					"source" : [ "obj-91", 1 ]
				}

			}
 ],
		"dependency_cache" : [ 			{
				"name" : "fuzz-ui-melody_background.jpg",
				"bootpath" : "~/Documents/MCT/Fall 2022/Applied Music Tech/UI Assets/resources/images",
				"patcherrelativepath" : "./resources/images",
				"type" : "JPEG",
				"implicit" : 1
			}
, 			{
				"name" : "fuzz-ui-genres_background.jpg",
				"bootpath" : "~/Documents/MCT/Fall 2022/Applied Music Tech/UI Assets/resources/images",
				"patcherrelativepath" : "./resources/images",
				"type" : "JPEG",
				"implicit" : 1
			}
, 			{
				"name" : "fuzz-ui-fx_background.jpg",
				"bootpath" : "~/Documents/MCT/Fall 2022/Applied Music Tech/UI Assets/resources/images",
				"patcherrelativepath" : "./resources/images",
				"type" : "JPEG",
				"implicit" : 1
			}
, 			{
				"name" : "FUZZ_UI-Genre_Button.maxpat",
				"bootpath" : "~/Documents/MCT/Fall 2022/Applied Music Tech/UI Assets",
				"patcherrelativepath" : ".",
				"type" : "JSON",
				"implicit" : 1
			}
, 			{
				"name" : "fuzz-ui-btn_genre_glow.png",
				"bootpath" : "~/Documents/MCT/Fall 2022/Applied Music Tech/UI Assets/resources/images",
				"patcherrelativepath" : "./resources/images",
				"type" : "PNG",
				"implicit" : 1
			}
, 			{
				"name" : "fuzz-ui-btn_menu_melody.png",
				"bootpath" : "~/Documents/MCT/Fall 2022/Applied Music Tech/UI Assets/resources/images",
				"patcherrelativepath" : "./resources/images",
				"type" : "PNG",
				"implicit" : 1
			}
, 			{
				"name" : "fuzz-ui-btn_menu_genres.png",
				"bootpath" : "~/Documents/MCT/Fall 2022/Applied Music Tech/UI Assets/resources/images",
				"patcherrelativepath" : "./resources/images",
				"type" : "PNG",
				"implicit" : 1
			}
, 			{
				"name" : "fuzz-ui-btn_menu_fx.png",
				"bootpath" : "~/Documents/MCT/Fall 2022/Applied Music Tech/UI Assets/resources/images",
				"patcherrelativepath" : "./resources/images",
				"type" : "PNG",
				"implicit" : 1
			}
 ],
		"autosave" : 0,
		"styles" : [ 			{
				"name" : "Descriptive Text",
				"default" : 				{
					"textcolor" : [ 1.0, 0.607843137254902, 0.443137254901961, 1.0 ],
					"fontsize" : [ 36.0 ],
					"fontname" : [ "AlternateGothic-NoOne" ],
					"textjustification" : [ 1 ]
				}
,
				"parentstyle" : "Title Text",
				"multi" : 0
			}
, 			{
				"name" : "Title Text",
				"default" : 				{
					"textcolor" : [ 1.0, 0.607843137254902, 0.443137254901961, 1.0 ],
					"fontsize" : [ 72.0 ],
					"fontname" : [ "AlternateGothic-NoOne" ],
					"textjustification" : [ 1 ]
				}
,
				"parentstyle" : "",
				"multi" : 0
			}
 ]
	}

}
