{
	"patcher" : 	{
		"fileversion" : 1,
		"appversion" : 		{
			"major" : 8,
			"minor" : 1,
			"revision" : 1,
			"architecture" : "x64",
			"modernui" : 1
		}
,
		"classnamespace" : "box",
		"rect" : [ 34.0, 79.0, 844.0, 687.0 ],
		"bglocked" : 0,
		"openinpresentation" : 0,
		"default_fontsize" : 12.0,
		"default_fontface" : 0,
		"default_fontname" : "Arial",
		"gridonopen" : 1,
		"gridsize" : [ 15.0, 15.0 ],
		"gridsnaponopen" : 1,
		"objectsnaponopen" : 1,
		"statusbarvisible" : 2,
		"toolbarvisible" : 1,
		"lefttoolbarpinned" : 0,
		"toptoolbarpinned" : 0,
		"righttoolbarpinned" : 0,
		"bottomtoolbarpinned" : 0,
		"toolbars_unpinned_last_save" : 0,
		"tallnewobj" : 0,
		"boxanimatetime" : 200,
		"enablehscroll" : 1,
		"enablevscroll" : 1,
		"devicewidth" : 0.0,
		"description" : "",
		"digest" : "",
		"tags" : "",
		"style" : "",
		"subpatcher_template" : "",
		"boxes" : [ 			{
				"box" : 				{
					"id" : "obj-2",
					"maxclass" : "newobj",
					"numinlets" : 1,
					"numoutlets" : 1,
					"outlettype" : [ "bang" ],
					"patching_rect" : [ 14.666667103767395, 758.0, 58.0, 22.0 ],
					"text" : "loadbang"
				}

			}
, 			{
				"box" : 				{
					"id" : "obj-6",
					"maxclass" : "message",
					"numinlets" : 2,
					"numoutlets" : 1,
					"outlettype" : [ "" ],
					"patching_rect" : [ 196.666671633720398, 796.000023722648621, 82.0, 22.0 ],
					"text" : "offset -2560 0"
				}

			}
, 			{
				"box" : 				{
					"id" : "obj-5",
					"maxclass" : "message",
					"numinlets" : 2,
					"numoutlets" : 1,
					"outlettype" : [ "" ],
					"patching_rect" : [ 101.666669249534607, 796.000023722648621, 82.0, 22.0 ],
					"text" : "offset -1280 0"
				}

			}
, 			{
				"box" : 				{
					"id" : "obj-4",
					"maxclass" : "message",
					"numinlets" : 2,
					"numoutlets" : 1,
					"outlettype" : [ "" ],
					"patching_rect" : [ 14.666667103767395, 796.000023722648621, 58.0, 22.0 ],
					"text" : "offset 0 0"
				}

			}
, 			{
				"box" : 				{
					"bgmode" : 0,
					"border" : 0,
					"clickthrough" : 0,
					"enablehscroll" : 0,
					"enablevscroll" : 0,
					"id" : "obj-1",
					"lockeddragscroll" : 0,
					"maxclass" : "bpatcher",
					"name" : "FUZZ Producer Station User Interface.maxpat",
					"numinlets" : 1,
					"numoutlets" : 3,
					"offset" : [ 0.0, 0.0 ],
					"outlettype" : [ "bang", "bang", "bang" ],
					"patching_rect" : [ 0.0, 0.0, 1280.0, 720.0 ],
					"presentation" : 1,
					"presentation_rect" : [ 0.0, 0.0, 1280.0, 720.0 ],
					"viewvisibility" : 1
				}

			}
 ],
		"lines" : [ 			{
				"patchline" : 				{
					"destination" : [ "obj-4", 0 ],
					"source" : [ "obj-1", 2 ]
				}

			}
, 			{
				"patchline" : 				{
					"destination" : [ "obj-5", 0 ],
					"source" : [ "obj-1", 1 ]
				}

			}
, 			{
				"patchline" : 				{
					"destination" : [ "obj-6", 0 ],
					"source" : [ "obj-1", 0 ]
				}

			}
, 			{
				"patchline" : 				{
					"destination" : [ "obj-4", 0 ],
					"source" : [ "obj-2", 0 ]
				}

			}
, 			{
				"patchline" : 				{
					"destination" : [ "obj-1", 0 ],
					"source" : [ "obj-4", 0 ]
				}

			}
, 			{
				"patchline" : 				{
					"destination" : [ "obj-1", 0 ],
					"source" : [ "obj-5", 0 ]
				}

			}
, 			{
				"patchline" : 				{
					"destination" : [ "obj-1", 0 ],
					"source" : [ "obj-6", 0 ]
				}

			}
 ],
		"dependency_cache" : [ 			{
				"name" : "FUZZ Producer Station User Interface.maxpat",
				"bootpath" : "~/Documents/MCT/Fall 2022/Applied Music Tech/UI Assets",
				"patcherrelativepath" : ".",
				"type" : "JSON",
				"implicit" : 1
			}
, 			{
				"name" : "fuzz-ui-melody_background.jpg",
				"bootpath" : "~/Documents/MCT/Fall 2022/Applied Music Tech/UI Assets/resources/images",
				"patcherrelativepath" : "./resources/images",
				"type" : "JPEG",
				"implicit" : 1
			}
, 			{
				"name" : "fuzz-ui-genres_background.jpg",
				"bootpath" : "~/Documents/MCT/Fall 2022/Applied Music Tech/UI Assets/resources/images",
				"patcherrelativepath" : "./resources/images",
				"type" : "JPEG",
				"implicit" : 1
			}
, 			{
				"name" : "fuzz-ui-fx_background.jpg",
				"bootpath" : "~/Documents/MCT/Fall 2022/Applied Music Tech/UI Assets/resources/images",
				"patcherrelativepath" : "./resources/images",
				"type" : "JPEG",
				"implicit" : 1
			}
, 			{
				"name" : "FUZZ_UI-Genre_Button.maxpat",
				"bootpath" : "~/Documents/MCT/Fall 2022/Applied Music Tech/UI Assets",
				"patcherrelativepath" : ".",
				"type" : "JSON",
				"implicit" : 1
			}
, 			{
				"name" : "fuzz-ui-btn_genre_glow.png",
				"bootpath" : "~/Documents/MCT/Fall 2022/Applied Music Tech/UI Assets/resources/images",
				"patcherrelativepath" : "./resources/images",
				"type" : "PNG",
				"implicit" : 1
			}
, 			{
				"name" : "fuzz-ui-btn_menu_melody.png",
				"bootpath" : "~/Documents/MCT/Fall 2022/Applied Music Tech/UI Assets/resources/images",
				"patcherrelativepath" : "./resources/images",
				"type" : "PNG",
				"implicit" : 1
			}
, 			{
				"name" : "fuzz-ui-btn_menu_genres.png",
				"bootpath" : "~/Documents/MCT/Fall 2022/Applied Music Tech/UI Assets/resources/images",
				"patcherrelativepath" : "./resources/images",
				"type" : "PNG",
				"implicit" : 1
			}
, 			{
				"name" : "fuzz-ui-btn_menu_fx.png",
				"bootpath" : "~/Documents/MCT/Fall 2022/Applied Music Tech/UI Assets/resources/images",
				"patcherrelativepath" : "./resources/images",
				"type" : "PNG",
				"implicit" : 1
			}
 ],
		"autosave" : 0,
		"styles" : [ 			{
				"name" : "Descriptive Text",
				"parentstyle" : "Title Text",
				"multi" : 0
			}
, 			{
				"name" : "Title Text",
				"default" : 				{
					"textcolor" : [ 1.0, 0.607843137254902, 0.443137254901961, 1.0 ],
					"fontsize" : [ 72.0 ],
					"fontname" : [ "AlternateGothic-NoOne" ],
					"textjustification" : [ 1 ]
				}
,
				"parentstyle" : "",
				"multi" : 0
			}
 ]
	}

}
